<svg width="18" height="18" viewBox="0 0 18 18" fill="none" xmlns="http://www.w3.org/2000/svg">
<mask id="path-1-outside-1_8_118" maskUnits="userSpaceOnUse" x="-1" y="-1" width="20" height="21" fill="black">
<rect fill="white" x="-1" y="-1" width="20" height="21"/>
<path d="M9.10547 18.0078C7.85547 18.0078 6.70703 17.7578 5.66016 17.2578C4.62891 16.7578 3.73828 16.0938 2.98828 15.2656C2.23828 14.4531 1.65234 13.5625 1.23047 12.5938C0.824219 11.6094 0.621094 10.6328 0.621094 9.66406C0.621094 8.25781 0.855469 6.99219 1.32422 5.86719C1.80859 4.72656 2.48047 3.75781 3.33984 2.96094C4.19922 2.16406 5.19922 1.55469 6.33984 1.13281C7.49609 0.695312 8.75391 0.476562 10.1133 0.476562C11.2695 0.476562 12.3086 0.71875 13.2305 1.20312C14.1523 1.67188 14.9414 2.29688 15.5977 3.07812C16.2695 3.85938 16.7773 4.72656 17.1211 5.67969C17.4805 6.63281 17.6602 7.58594 17.6602 8.53906C17.6602 9.53906 17.5117 10.4844 17.2148 11.375C16.918 12.25 16.457 12.9609 15.832 13.5078C15.207 14.0391 14.3945 14.3047 13.3945 14.3047C12.8945 14.3047 12.4414 14.1797 12.0352 13.9297C11.6445 13.6641 11.332 13.3438 11.0977 12.9688C10.8789 12.5781 10.7695 12.2031 10.7695 11.8438C10.7695 11.8281 10.7539 11.8281 10.7227 11.8438C10.707 11.8438 10.6836 11.8594 10.6523 11.8906C10.4961 12.1719 10.2148 12.4922 9.80859 12.8516C9.40234 13.1953 8.96484 13.5 8.49609 13.7656C8.04297 14.0312 7.62891 14.1641 7.25391 14.1641C6.72266 14.1641 6.26172 14 5.87109 13.6719C5.49609 13.3438 5.20703 12.9141 5.00391 12.3828C4.80078 11.8516 4.69922 11.2891 4.69922 10.6953C4.69922 9.57031 4.95703 8.53125 5.47266 7.57812C6.00391 6.625 6.75391 5.85938 7.72266 5.28125C8.69141 4.6875 9.83203 4.39062 11.1445 4.39062L13.2305 4.60156L13.0664 5.84375L12.4805 11.0703C12.4648 11.2266 12.4492 11.3594 12.4336 11.4688C12.4336 11.5781 12.4336 11.6641 12.4336 11.7266C12.4336 12.8203 12.8242 13.3672 13.6055 13.3672C14.1211 13.3672 14.5664 13.2266 14.9414 12.9453C15.3164 12.6641 15.6133 12.3047 15.832 11.8672C16.0664 11.4141 16.2383 10.9375 16.3477 10.4375C16.457 9.92188 16.5117 9.4375 16.5117 8.98438C16.5117 7.64062 16.2305 6.41406 15.668 5.30469C15.1055 4.17969 14.3242 3.28906 13.3242 2.63281C12.3242 1.96094 11.168 1.625 9.85547 1.625C8.77734 1.625 7.76172 1.80469 6.80859 2.16406C5.87109 2.52344 5.03516 3.03125 4.30078 3.6875C3.58203 4.32812 3.01953 5.08594 2.61328 5.96094C2.20703 6.82031 2.00391 7.75781 2.00391 8.77344C2.00391 10.3984 2.30859 11.8281 2.91797 13.0625C3.54297 14.2969 4.47266 15.25 5.70703 15.9219C6.95703 16.6094 8.51953 16.9531 10.3945 16.9531C10.6602 16.9531 10.9414 16.8984 11.2383 16.7891C11.5352 16.6797 11.7617 16.5781 11.918 16.4844L12.0586 16.4375L12.1055 16.6719C12.043 17.0156 11.832 17.2812 11.4727 17.4688C11.1289 17.6719 10.7383 17.8125 10.3008 17.8906C9.86328 17.9688 9.46484 18.0078 9.10547 18.0078ZM7.91016 12.7578C8.22266 12.7578 8.54297 12.6562 8.87109 12.4531C9.21484 12.2344 9.53516 11.9766 9.83203 11.6797C10.1289 11.3672 10.3711 11.0625 10.5586 10.7656C10.7617 10.4531 10.8711 10.2031 10.8867 10.0156L11.2383 6.45312C11.2539 6.39062 11.2617 6.29688 11.2617 6.17188C11.2617 5.9375 11.168 5.78125 10.9805 5.70312C10.8086 5.625 10.5039 5.58594 10.0664 5.58594C9.06641 5.58594 8.22266 6.03906 7.53516 6.94531C6.86328 7.83594 6.52734 9.07031 6.52734 10.6484C6.52734 11.3828 6.66797 11.9219 6.94922 12.2656C7.23047 12.5938 7.55078 12.7578 7.91016 12.7578Z"/>
</mask>
<path d="M9.10547 18.0078C7.85547 18.0078 6.70703 17.7578 5.66016 17.2578C4.62891 16.7578 3.73828 16.0938 2.98828 15.2656C2.23828 14.4531 1.65234 13.5625 1.23047 12.5938C0.824219 11.6094 0.621094 10.6328 0.621094 9.66406C0.621094 8.25781 0.855469 6.99219 1.32422 5.86719C1.80859 4.72656 2.48047 3.75781 3.33984 2.96094C4.19922 2.16406 5.19922 1.55469 6.33984 1.13281C7.49609 0.695312 8.75391 0.476562 10.1133 0.476562C11.2695 0.476562 12.3086 0.71875 13.2305 1.20312C14.1523 1.67188 14.9414 2.29688 15.5977 3.07812C16.2695 3.85938 16.7773 4.72656 17.1211 5.67969C17.4805 6.63281 17.6602 7.58594 17.6602 8.53906C17.6602 9.53906 17.5117 10.4844 17.2148 11.375C16.918 12.25 16.457 12.9609 15.832 13.5078C15.207 14.0391 14.3945 14.3047 13.3945 14.3047C12.8945 14.3047 12.4414 14.1797 12.0352 13.9297C11.6445 13.6641 11.332 13.3438 11.0977 12.9688C10.8789 12.5781 10.7695 12.2031 10.7695 11.8438C10.7695 11.8281 10.7539 11.8281 10.7227 11.8438C10.707 11.8438 10.6836 11.8594 10.6523 11.8906C10.4961 12.1719 10.2148 12.4922 9.80859 12.8516C9.40234 13.1953 8.96484 13.5 8.49609 13.7656C8.04297 14.0312 7.62891 14.1641 7.25391 14.1641C6.72266 14.1641 6.26172 14 5.87109 13.6719C5.49609 13.3438 5.20703 12.9141 5.00391 12.3828C4.80078 11.8516 4.69922 11.2891 4.69922 10.6953C4.69922 9.57031 4.95703 8.53125 5.47266 7.57812C6.00391 6.625 6.75391 5.85938 7.72266 5.28125C8.69141 4.6875 9.83203 4.39062 11.1445 4.39062L13.2305 4.60156L13.0664 5.84375L12.4805 11.0703C12.4648 11.2266 12.4492 11.3594 12.4336 11.4688C12.4336 11.5781 12.4336 11.6641 12.4336 11.7266C12.4336 12.8203 12.8242 13.3672 13.6055 13.3672C14.1211 13.3672 14.5664 13.2266 14.9414 12.9453C15.3164 12.6641 15.6133 12.3047 15.832 11.8672C16.0664 11.4141 16.2383 10.9375 16.3477 10.4375C16.457 9.92188 16.5117 9.4375 16.5117 8.98438C16.5117 7.64062 16.2305 6.41406 15.668 5.30469C15.1055 4.17969 14.3242 3.28906 13.3242 2.63281C12.3242 1.96094 11.168 1.625 9.85547 1.625C8.77734 1.625 7.76172 1.80469 6.80859 2.16406C5.87109 2.52344 5.03516 3.03125 4.30078 3.6875C3.58203 4.32812 3.01953 5.08594 2.61328 5.96094C2.20703 6.82031 2.00391 7.75781 2.00391 8.77344C2.00391 10.3984 2.30859 11.8281 2.91797 13.0625C3.54297 14.2969 4.47266 15.25 5.70703 15.9219C6.95703 16.6094 8.51953 16.9531 10.3945 16.9531C10.6602 16.9531 10.9414 16.8984 11.2383 16.7891C11.5352 16.6797 11.7617 16.5781 11.918 16.4844L12.0586 16.4375L12.1055 16.6719C12.043 17.0156 11.832 17.2812 11.4727 17.4688C11.1289 17.6719 10.7383 17.8125 10.3008 17.8906C9.86328 17.9688 9.46484 18.0078 9.10547 18.0078ZM7.91016 12.7578C8.22266 12.7578 8.54297 12.6562 8.87109 12.4531C9.21484 12.2344 9.53516 11.9766 9.83203 11.6797C10.1289 11.3672 10.3711 11.0625 10.5586 10.7656C10.7617 10.4531 10.8711 10.2031 10.8867 10.0156L11.2383 6.45312C11.2539 6.39062 11.2617 6.29688 11.2617 6.17188C11.2617 5.9375 11.168 5.78125 10.9805 5.70312C10.8086 5.625 10.5039 5.58594 10.0664 5.58594C9.06641 5.58594 8.22266 6.03906 7.53516 6.94531C6.86328 7.83594 6.52734 9.07031 6.52734 10.6484C6.52734 11.3828 6.66797 11.9219 6.94922 12.2656C7.23047 12.5938 7.55078 12.7578 7.91016 12.7578Z" fill="white"/>
<path d="M5.66016 17.2578L5.22388 18.1576L5.22918 18.1602L5.66016 17.2578ZM2.98828 15.2656L3.72952 14.5943L3.72308 14.5873L2.98828 15.2656ZM1.23047 12.5938L0.306095 12.9752L0.309779 12.9842L0.313634 12.993L1.23047 12.5938ZM1.32422 5.86719L0.403753 5.4763L0.401142 5.48257L1.32422 5.86719ZM6.33984 1.13281L6.68675 2.07074L6.69374 2.0681L6.33984 1.13281ZM13.2305 1.20312L12.7653 2.08845L12.7772 2.09451L13.2305 1.20312ZM15.5977 3.07812L14.8319 3.72136L14.8395 3.73016L15.5977 3.07812ZM17.1211 5.67969L16.1804 6.01895L16.1829 6.02574L16.1854 6.03249L17.1211 5.67969ZM17.2148 11.375L18.1618 11.6963L18.1635 11.6912L17.2148 11.375ZM15.832 13.5078L16.4797 14.2698L16.4851 14.2651L16.4905 14.2604L15.832 13.5078ZM12.0352 13.9297L11.4728 14.7566L11.4917 14.7694L11.5111 14.7813L12.0352 13.9297ZM11.0977 12.9688L10.2252 13.4574L10.2369 13.4783L10.2497 13.4987L11.0977 12.9688ZM10.7227 11.8438V12.8438H10.9587L11.1699 12.7382L10.7227 11.8438ZM10.6523 11.8906L9.94524 11.1835L9.8462 11.2826L9.77819 11.405L10.6523 11.8906ZM9.80859 12.8516L10.4545 13.6149L10.4629 13.6078L10.4712 13.6006L9.80859 12.8516ZM8.49609 13.7656L8.00308 12.8956L7.9967 12.8992L7.99037 12.9029L8.49609 13.7656ZM5.87109 13.6719L5.21259 14.4245L5.22018 14.4311L5.2279 14.4376L5.87109 13.6719ZM5.47266 7.57812L4.59911 7.09123L4.59311 7.10231L5.47266 7.57812ZM7.72266 5.28125L8.23515 6.14002L8.24522 6.13385L7.72266 5.28125ZM11.1445 4.39062L11.2451 3.3957L11.195 3.39062H11.1445V4.39062ZM13.2305 4.60156L14.2219 4.7325L14.3569 3.71037L13.3311 3.60664L13.2305 4.60156ZM13.0664 5.84375L12.075 5.71281L12.0737 5.72256L12.0726 5.73234L13.0664 5.84375ZM12.4805 11.0703L11.4866 10.9589L11.4854 10.9708L12.4805 11.0703ZM12.4336 11.4688L11.4436 11.3273L11.4336 11.3977V11.4688H12.4336ZM15.832 11.8672L14.9437 11.4077L14.9376 11.42L15.832 11.8672ZM16.3477 10.4375L17.3246 10.6512L17.3259 10.645L16.3477 10.4375ZM15.668 5.30469L14.7735 5.75191L14.7761 5.75692L15.668 5.30469ZM13.3242 2.63281L12.7665 3.46291L12.7756 3.46886L13.3242 2.63281ZM6.80859 2.16406L6.45578 1.22835L6.45066 1.23032L6.80859 2.16406ZM4.30078 3.6875L4.96615 4.43401L4.96711 4.43316L4.30078 3.6875ZM2.61328 5.96094L3.51738 6.38833L3.52029 6.38205L2.61328 5.96094ZM2.91797 13.0625L2.02124 13.5052L2.02581 13.5142L2.91797 13.0625ZM5.70703 15.9219L6.18895 15.0457L6.1851 15.0436L5.70703 15.9219ZM11.918 16.4844L11.6017 15.5357L11.4976 15.5704L11.4035 15.6269L11.918 16.4844ZM12.0586 16.4375L13.0392 16.2414L12.817 15.1306L11.7424 15.4888L12.0586 16.4375ZM12.1055 16.6719L13.0893 16.8508L13.1235 16.6629L13.086 16.4758L12.1055 16.6719ZM11.4727 17.4688L11.0101 16.5822L10.9867 16.5944L10.9639 16.6078L11.4727 17.4688ZM8.87109 12.4531L9.39749 13.3035L9.40797 13.2968L8.87109 12.4531ZM9.83203 11.6797L10.5391 12.3868L10.5482 12.3777L10.557 12.3684L9.83203 11.6797ZM10.5586 10.7656L9.72008 10.2206L9.7131 10.2316L10.5586 10.7656ZM10.8867 10.0156L9.89155 9.91742L9.89081 9.92499L9.89017 9.93258L10.8867 10.0156ZM11.2383 6.45312L10.2681 6.21059L10.2503 6.28183L10.2431 6.35492L11.2383 6.45312ZM10.9805 5.70312L10.5667 6.61349L10.5812 6.62008L10.5959 6.6262L10.9805 5.70312ZM7.53516 6.94531L6.73846 6.34092L6.73684 6.34307L7.53516 6.94531ZM6.94922 12.2656L6.17526 12.8989L6.18251 12.9077L6.18996 12.9164L6.94922 12.2656ZM9.10547 17.0078C7.99285 17.0078 6.9932 16.7863 6.09114 16.3555L5.22918 18.1602C6.42086 18.7293 7.71809 19.0078 9.10547 19.0078V17.0078ZM6.09643 16.358C5.17749 15.9125 4.39119 15.325 3.72949 14.5943L2.24708 15.9369C3.08537 16.8625 4.08032 17.6032 5.22388 18.1576L6.09643 16.358ZM3.72308 14.5873C3.04538 13.8532 2.52248 13.056 2.1473 12.1945L0.313634 12.993C0.782206 14.069 1.43119 15.0531 2.25348 15.9439L3.72308 14.5873ZM2.15484 12.2123C1.79355 11.3368 1.62109 10.4895 1.62109 9.66406H-0.378906C-0.378906 10.7761 -0.145111 11.8819 0.306095 12.9752L2.15484 12.2123ZM1.62109 9.66406C1.62109 8.36972 1.83653 7.23764 2.2473 6.2518L0.401142 5.48257C-0.125591 6.74673 -0.378906 8.1459 -0.378906 9.66406H1.62109ZM2.24466 6.25806C2.67714 5.23966 3.26971 4.38973 4.01978 3.69421L2.6599 2.22767C1.69123 3.12589 0.940052 4.21347 0.403774 5.47631L2.24466 6.25806ZM4.01978 3.69421C4.77905 2.99016 5.66477 2.44871 6.68674 2.07072L5.99295 0.194909C4.73367 0.660669 3.61939 1.33796 2.6599 2.22767L4.01978 3.69421ZM6.69374 2.0681C7.72617 1.67745 8.86278 1.47656 10.1133 1.47656V-0.523438C8.64504 -0.523438 7.26602 -0.286823 5.98595 0.197526L6.69374 2.0681ZM10.1133 1.47656C11.1257 1.47656 12.0022 1.68739 12.7653 2.08837L13.6956 0.317882C12.615 -0.249889 11.4134 -0.523438 10.1133 -0.523438V1.47656ZM12.7772 2.09451C13.581 2.50321 14.2633 3.04438 14.832 3.72132L16.3634 2.43493C15.6195 1.54937 14.7237 0.840537 13.6837 0.31174L12.7772 2.09451ZM14.8395 3.73016C15.4334 4.42073 15.8787 5.18229 16.1804 6.01895L18.0618 5.34042C17.676 4.27083 17.1057 3.29802 16.3558 2.42609L14.8395 3.73016ZM16.1854 6.03249C16.5052 6.88066 16.6602 7.71452 16.6602 8.53906H18.6602C18.6602 7.45735 18.4557 6.38497 18.0568 5.32688L16.1854 6.03249ZM16.6602 8.53906C16.6602 9.43861 16.5269 10.2766 16.2662 11.0588L18.1635 11.6912C18.4965 10.6922 18.6602 9.63952 18.6602 8.53906H16.6602ZM16.2679 11.0537C16.021 11.7813 15.6516 12.3369 15.1735 12.7552L16.4905 14.2604C17.2624 13.585 17.8149 12.7187 18.1618 11.6963L16.2679 11.0537ZM15.1844 12.7459C14.7775 13.0917 14.2113 13.3047 13.3945 13.3047V15.3047C14.5778 15.3047 15.6366 14.9864 16.4797 14.2698L15.1844 12.7459ZM13.3945 13.3047C13.0703 13.3047 12.8001 13.2263 12.5593 13.078L11.5111 14.7813C12.0827 15.1331 12.7188 15.3047 13.3945 15.3047V13.3047ZM12.5975 13.1028C12.3137 12.9098 12.1015 12.6881 11.9457 12.4388L10.2497 13.4987C10.5625 13.9994 10.9754 14.4183 11.4728 14.7566L12.5975 13.1028ZM11.9702 12.4801C11.8147 12.2026 11.7695 11.9948 11.7695 11.8438H9.76953C9.76953 12.4114 9.94307 12.9536 10.2252 13.4574L11.9702 12.4801ZM11.7695 11.8438C11.7695 11.6857 11.7293 11.3835 11.4737 11.1279C11.2181 10.8722 10.9159 10.832 10.7578 10.832C10.4952 10.832 10.2989 10.9376 10.2754 10.9493L11.1699 12.7382C11.1512 12.7475 11.1126 12.7659 11.0594 12.7836C11.0153 12.7983 10.9052 12.832 10.7578 12.832C10.6076 12.832 10.3112 12.7938 10.0595 12.5421C9.80777 12.2903 9.76953 11.994 9.76953 11.8438H11.7695ZM10.7227 10.8438C10.4143 10.8438 10.2002 10.9824 10.1387 11.0234C10.0504 11.0822 9.98436 11.1444 9.94524 11.1835L11.3595 12.5977C11.3516 12.6056 11.3129 12.6443 11.2481 12.6875C11.2144 12.71 11.1577 12.7444 11.0809 12.7752C11.0061 12.8051 10.8817 12.8438 10.7227 12.8438V10.8438ZM9.77819 11.405C9.70207 11.542 9.51727 11.7742 9.14602 12.1026L10.4712 13.6006C10.9124 13.2102 11.2901 12.8018 11.5265 12.3763L9.77819 11.405ZM9.16265 12.0882C8.80454 12.3912 8.41832 12.6603 8.00308 12.8956L8.98911 14.6356C9.51137 14.3397 10.0002 13.9994 10.4545 13.6149L9.16265 12.0882ZM7.99037 12.9029C7.63217 13.1129 7.3938 13.1641 7.25391 13.1641V15.1641C7.86401 15.1641 8.45377 14.9496 9.00181 14.6283L7.99037 12.9029ZM7.25391 13.1641C6.94736 13.1641 6.71681 13.0763 6.51429 12.9062L5.2279 14.4376C5.80662 14.9237 6.49795 15.1641 7.25391 15.1641V13.1641ZM6.5296 12.9193C6.29371 12.7129 6.09116 12.4264 5.93796 12.0257L4.06985 12.7399C4.3229 13.4018 4.69848 13.9746 5.21259 14.4245L6.5296 12.9193ZM5.93796 12.0257C5.78033 11.6134 5.69922 11.1724 5.69922 10.6953H3.69922C3.69922 11.4057 3.82123 12.0897 4.06985 12.7399L5.93796 12.0257ZM5.69922 10.6953C5.69922 9.72988 5.9187 8.85525 6.3522 8.05394L4.59311 7.10231C3.99536 8.20725 3.69922 9.41074 3.69922 10.6953H5.69922ZM6.34614 8.06498C6.78884 7.27073 7.41195 6.6312 8.23511 6.13996L7.2102 4.42254C6.09586 5.08755 5.21897 5.97927 4.59918 7.09127L6.34614 8.06498ZM8.24522 6.13385C9.03359 5.65065 9.98734 5.39062 11.1445 5.39062V3.39062C9.67672 3.39062 8.34922 3.72435 7.20009 4.42865L8.24522 6.13385ZM11.0439 5.38555L13.1299 5.59649L13.3311 3.60664L11.2451 3.3957L11.0439 5.38555ZM12.2391 4.47062L12.075 5.71281L14.0578 5.97469L14.2219 4.7325L12.2391 4.47062ZM12.0726 5.73234L11.4867 10.9589L13.4742 11.1817L14.0602 5.95516L12.0726 5.73234ZM11.4854 10.9708C11.4707 11.1184 11.4566 11.2363 11.4436 11.3273L13.4235 11.6102C13.4418 11.4824 13.459 11.3348 13.4755 11.1698L11.4854 10.9708ZM11.4336 11.4688C11.4336 11.469 11.4336 11.4692 11.4336 11.4694C11.4336 11.4696 11.4336 11.4698 11.4336 11.47C11.4336 11.4702 11.4336 11.4705 11.4336 11.4707C11.4336 11.4709 11.4336 11.4711 11.4336 11.4713C11.4336 11.4715 11.4336 11.4717 11.4336 11.4719C11.4336 11.4722 11.4336 11.4724 11.4336 11.4726C11.4336 11.4728 11.4336 11.473 11.4336 11.4732C11.4336 11.4734 11.4336 11.4736 11.4336 11.4739C11.4336 11.4741 11.4336 11.4743 11.4336 11.4745C11.4336 11.4747 11.4336 11.4749 11.4336 11.4751C11.4336 11.4753 11.4336 11.4756 11.4336 11.4758C11.4336 11.476 11.4336 11.4762 11.4336 11.4764C11.4336 11.4766 11.4336 11.4768 11.4336 11.477C11.4336 11.4772 11.4336 11.4775 11.4336 11.4777C11.4336 11.4779 11.4336 11.4781 11.4336 11.4783C11.4336 11.4785 11.4336 11.4787 11.4336 11.4789C11.4336 11.4791 11.4336 11.4794 11.4336 11.4796C11.4336 11.4798 11.4336 11.48 11.4336 11.4802C11.4336 11.4804 11.4336 11.4806 11.4336 11.4808C11.4336 11.481 11.4336 11.4813 11.4336 11.4815C11.4336 11.4817 11.4336 11.4819 11.4336 11.4821C11.4336 11.4823 11.4336 11.4825 11.4336 11.4827C11.4336 11.4829 11.4336 11.4831 11.4336 11.4833C11.4336 11.4836 11.4336 11.4838 11.4336 11.484C11.4336 11.4842 11.4336 11.4844 11.4336 11.4846C11.4336 11.4848 11.4336 11.485 11.4336 11.4852C11.4336 11.4854 11.4336 11.4856 11.4336 11.4859C11.4336 11.4861 11.4336 11.4863 11.4336 11.4865C11.4336 11.4867 11.4336 11.4869 11.4336 11.4871C11.4336 11.4873 11.4336 11.4875 11.4336 11.4877C11.4336 11.4879 11.4336 11.4882 11.4336 11.4884C11.4336 11.4886 11.4336 11.4888 11.4336 11.489C11.4336 11.4892 11.4336 11.4894 11.4336 11.4896C11.4336 11.4898 11.4336 11.49 11.4336 11.4902C11.4336 11.4904 11.4336 11.4906 11.4336 11.4909C11.4336 11.4911 11.4336 11.4913 11.4336 11.4915C11.4336 11.4917 11.4336 11.4919 11.4336 11.4921C11.4336 11.4923 11.4336 11.4925 11.4336 11.4927C11.4336 11.4929 11.4336 11.4931 11.4336 11.4933C11.4336 11.4935 11.4336 11.4937 11.4336 11.494C11.4336 11.4942 11.4336 11.4944 11.4336 11.4946C11.4336 11.4948 11.4336 11.495 11.4336 11.4952C11.4336 11.4954 11.4336 11.4956 11.4336 11.4958C11.4336 11.496 11.4336 11.4962 11.4336 11.4964C11.4336 11.4966 11.4336 11.4968 11.4336 11.497C11.4336 11.4973 11.4336 11.4975 11.4336 11.4977C11.4336 11.4979 11.4336 11.4981 11.4336 11.4983C11.4336 11.4985 11.4336 11.4987 11.4336 11.4989C11.4336 11.4991 11.4336 11.4993 11.4336 11.4995C11.4336 11.4997 11.4336 11.4999 11.4336 11.5001C11.4336 11.5003 11.4336 11.5005 11.4336 11.5007C11.4336 11.5009 11.4336 11.5011 11.4336 11.5013C11.4336 11.5016 11.4336 11.5018 11.4336 11.502C11.4336 11.5022 11.4336 11.5024 11.4336 11.5026C11.4336 11.5028 11.4336 11.503 11.4336 11.5032C11.4336 11.5034 11.4336 11.5036 11.4336 11.5038C11.4336 11.504 11.4336 11.5042 11.4336 11.5044C11.4336 11.5046 11.4336 11.5048 11.4336 11.505C11.4336 11.5052 11.4336 11.5054 11.4336 11.5056C11.4336 11.5058 11.4336 11.506 11.4336 11.5062C11.4336 11.5064 11.4336 11.5066 11.4336 11.5068C11.4336 11.507 11.4336 11.5073 11.4336 11.5075C11.4336 11.5077 11.4336 11.5079 11.4336 11.5081C11.4336 11.5083 11.4336 11.5085 11.4336 11.5087C11.4336 11.5089 11.4336 11.5091 11.4336 11.5093C11.4336 11.5095 11.4336 11.5097 11.4336 11.5099C11.4336 11.5101 11.4336 11.5103 11.4336 11.5105C11.4336 11.5107 11.4336 11.5109 11.4336 11.5111C11.4336 11.5113 11.4336 11.5115 11.4336 11.5117C11.4336 11.5119 11.4336 11.5121 11.4336 11.5123C11.4336 11.5125 11.4336 11.5127 11.4336 11.5129C11.4336 11.5131 11.4336 11.5133 11.4336 11.5135C11.4336 11.5137 11.4336 11.5139 11.4336 11.5141C11.4336 11.5143 11.4336 11.5145 11.4336 11.5147C11.4336 11.5149 11.4336 11.5151 11.4336 11.5153C11.4336 11.5155 11.4336 11.5157 11.4336 11.5159C11.4336 11.5161 11.4336 11.5163 11.4336 11.5165C11.4336 11.5167 11.4336 11.5169 11.4336 11.5171C11.4336 11.5173 11.4336 11.5175 11.4336 11.5177C11.4336 11.5179 11.4336 11.5181 11.4336 11.5183C11.4336 11.5185 11.4336 11.5187 11.4336 11.5189C11.4336 11.5191 11.4336 11.5193 11.4336 11.5195C11.4336 11.5197 11.4336 11.5199 11.4336 11.5201C11.4336 11.5203 11.4336 11.5205 11.4336 11.5207C11.4336 11.5209 11.4336 11.5211 11.4336 11.5213C11.4336 11.5215 11.4336 11.5217 11.4336 11.5219C11.4336 11.5221 11.4336 11.5223 11.4336 11.5225C11.4336 11.5227 11.4336 11.5229 11.4336 11.5231C11.4336 11.5233 11.4336 11.5235 11.4336 11.5237C11.4336 11.5239 11.4336 11.5241 11.4336 11.5243C11.4336 11.5245 11.4336 11.5247 11.4336 11.5248C11.4336 11.525 11.4336 11.5252 11.4336 11.5254C11.4336 11.5256 11.4336 11.5258 11.4336 11.526C11.4336 11.5262 11.4336 11.5264 11.4336 11.5266C11.4336 11.5268 11.4336 11.527 11.4336 11.5272C11.4336 11.5274 11.4336 11.5276 11.4336 11.5278C11.4336 11.528 11.4336 11.5282 11.4336 11.5284C11.4336 11.5286 11.4336 11.5288 11.4336 11.529C11.4336 11.5292 11.4336 11.5294 11.4336 11.5296C11.4336 11.5298 11.4336 11.53 11.4336 11.5302C11.4336 11.5304 11.4336 11.5305 11.4336 11.5307C11.4336 11.5309 11.4336 11.5311 11.4336 11.5313C11.4336 11.5315 11.4336 11.5317 11.4336 11.5319C11.4336 11.5321 11.4336 11.5323 11.4336 11.5325C11.4336 11.5327 11.4336 11.5329 11.4336 11.5331C11.4336 11.5333 11.4336 11.5335 11.4336 11.5337C11.4336 11.5339 11.4336 11.5341 11.4336 11.5343C11.4336 11.5344 11.4336 11.5346 11.4336 11.5348C11.4336 11.535 11.4336 11.5352 11.4336 11.5354C11.4336 11.5356 11.4336 11.5358 11.4336 11.536C11.4336 11.5362 11.4336 11.5364 11.4336 11.5366C11.4336 11.5368 11.4336 11.537 11.4336 11.5372C11.4336 11.5374 11.4336 11.5375 11.4336 11.5377C11.4336 11.5379 11.4336 11.5381 11.4336 11.5383C11.4336 11.5385 11.4336 11.5387 11.4336 11.5389C11.4336 11.5391 11.4336 11.5393 11.4336 11.5395C11.4336 11.5397 11.4336 11.5399 11.4336 11.5401C11.4336 11.5403 11.4336 11.5404 11.4336 11.5406C11.4336 11.5408 11.4336 11.541 11.4336 11.5412C11.4336 11.5414 11.4336 11.5416 11.4336 11.5418C11.4336 11.542 11.4336 11.5422 11.4336 11.5424C11.4336 11.5426 11.4336 11.5428 11.4336 11.5429C11.4336 11.5431 11.4336 11.5433 11.4336 11.5435C11.4336 11.5437 11.4336 11.5439 11.4336 11.5441C11.4336 11.5443 11.4336 11.5445 11.4336 11.5447C11.4336 11.5449 11.4336 11.5451 11.4336 11.5452C11.4336 11.5454 11.4336 11.5456 11.4336 11.5458C11.4336 11.546 11.4336 11.5462 11.4336 11.5464C11.4336 11.5466 11.4336 11.5468 11.4336 11.547C11.4336 11.5471 11.4336 11.5473 11.4336 11.5475C11.4336 11.5477 11.4336 11.5479 11.4336 11.5481C11.4336 11.5483 11.4336 11.5485 11.4336 11.5487C11.4336 11.5489 11.4336 11.5491 11.4336 11.5492C11.4336 11.5494 11.4336 11.5496 11.4336 11.5498C11.4336 11.55 11.4336 11.5502 11.4336 11.5504C11.4336 11.5506 11.4336 11.5508 11.4336 11.5509C11.4336 11.5511 11.4336 11.5513 11.4336 11.5515C11.4336 11.5517 11.4336 11.5519 11.4336 11.5521C11.4336 11.5523 11.4336 11.5525 11.4336 11.5526C11.4336 11.5528 11.4336 11.553 11.4336 11.5532C11.4336 11.5534 11.4336 11.5536 11.4336 11.5538C11.4336 11.554 11.4336 11.5542 11.4336 11.5543C11.4336 11.5545 11.4336 11.5547 11.4336 11.5549C11.4336 11.5551 11.4336 11.5553 11.4336 11.5555C11.4336 11.5557 11.4336 11.5558 11.4336 11.556C11.4336 11.5562 11.4336 11.5564 11.4336 11.5566C11.4336 11.5568 11.4336 11.557 11.4336 11.5572C11.4336 11.5573 11.4336 11.5575 11.4336 11.5577C11.4336 11.5579 11.4336 11.5581 11.4336 11.5583C11.4336 11.5585 11.4336 11.5587 11.4336 11.5588C11.4336 11.559 11.4336 11.5592 11.4336 11.5594C11.4336 11.5596 11.4336 11.5598 11.4336 11.56C11.4336 11.5602 11.4336 11.5603 11.4336 11.5605C11.4336 11.5607 11.4336 11.5609 11.4336 11.5611C11.4336 11.5613 11.4336 11.5615 11.4336 11.5616C11.4336 11.5618 11.4336 11.562 11.4336 11.5622C11.4336 11.5624 11.4336 11.5626 11.4336 11.5628C11.4336 11.5629 11.4336 11.5631 11.4336 11.5633C11.4336 11.5635 11.4336 11.5637 11.4336 11.5639C11.4336 11.5641 11.4336 11.5642 11.4336 11.5644C11.4336 11.5646 11.4336 11.5648 11.4336 11.565C11.4336 11.5652 11.4336 11.5653 11.4336 11.5655C11.4336 11.5657 11.4336 11.5659 11.4336 11.5661C11.4336 11.5663 11.4336 11.5665 11.4336 11.5666C11.4336 11.5668 11.4336 11.567 11.4336 11.5672C11.4336 11.5674 11.4336 11.5676 11.4336 11.5677C11.4336 11.5679 11.4336 11.5681 11.4336 11.5683C11.4336 11.5685 11.4336 11.5687 11.4336 11.5688C11.4336 11.569 11.4336 11.5692 11.4336 11.5694C11.4336 11.5696 11.4336 11.5698 11.4336 11.5699C11.4336 11.5701 11.4336 11.5703 11.4336 11.5705C11.4336 11.5707 11.4336 11.5709 11.4336 11.571C11.4336 11.5712 11.4336 11.5714 11.4336 11.5716C11.4336 11.5718 11.4336 11.572 11.4336 11.5721C11.4336 11.5723 11.4336 11.5725 11.4336 11.5727C11.4336 11.5729 11.4336 11.5731 11.4336 11.5732C11.4336 11.5734 11.4336 11.5736 11.4336 11.5738C11.4336 11.574 11.4336 11.5741 11.4336 11.5743C11.4336 11.5745 11.4336 11.5747 11.4336 11.5749C11.4336 11.5751 11.4336 11.5752 11.4336 11.5754C11.4336 11.5756 11.4336 11.5758 11.4336 11.576C11.4336 11.5761 11.4336 11.5763 11.4336 11.5765C11.4336 11.5767 11.4336 11.5769 11.4336 11.577C11.4336 11.5772 11.4336 11.5774 11.4336 11.5776C11.4336 11.5778 11.4336 11.578 11.4336 11.5781C11.4336 11.5783 11.4336 11.5785 11.4336 11.5787C11.4336 11.5789 11.4336 11.579 11.4336 11.5792C11.4336 11.5794 11.4336 11.5796 11.4336 11.5798C11.4336 11.5799 11.4336 11.5801 11.4336 11.5803C11.4336 11.5805 11.4336 11.5807 11.4336 11.5808C11.4336 11.581 11.4336 11.5812 11.4336 11.5814C11.4336 11.5816 11.4336 11.5817 11.4336 11.5819C11.4336 11.5821 11.4336 11.5823 11.4336 11.5824C11.4336 11.5826 11.4336 11.5828 11.4336 11.583C11.4336 11.5832 11.4336 11.5833 11.4336 11.5835C11.4336 11.5837 11.4336 11.5839 11.4336 11.5841C11.4336 11.5842 11.4336 11.5844 11.4336 11.5846C11.4336 11.5848 11.4336 11.5849 11.4336 11.5851C11.4336 11.5853 11.4336 11.5855 11.4336 11.5857C11.4336 11.5858 11.4336 11.586 11.4336 11.5862C11.4336 11.5864 11.4336 11.5866 11.4336 11.5867C11.4336 11.5869 11.4336 11.5871 11.4336 11.5873C11.4336 11.5874 11.4336 11.5876 11.4336 11.5878C11.4336 11.588 11.4336 11.5881 11.4336 11.5883C11.4336 11.5885 11.4336 11.5887 11.4336 11.5889C11.4336 11.589 11.4336 11.5892 11.4336 11.5894C11.4336 11.5896 11.4336 11.5897 11.4336 11.5899C11.4336 11.5901 11.4336 11.5903 11.4336 11.5904C11.4336 11.5906 11.4336 11.5908 11.4336 11.591C11.4336 11.5912 11.4336 11.5913 11.4336 11.5915C11.4336 11.5917 11.4336 11.5919 11.4336 11.592C11.4336 11.5922 11.4336 11.5924 11.4336 11.5926C11.4336 11.5927 11.4336 11.5929 11.4336 11.5931C11.4336 11.5933 11.4336 11.5934 11.4336 11.5936C11.4336 11.5938 11.4336 11.594 11.4336 11.5941C11.4336 11.5943 11.4336 11.5945 11.4336 11.5947C11.4336 11.5948 11.4336 11.595 11.4336 11.5952C11.4336 11.5954 11.4336 11.5955 11.4336 11.5957C11.4336 11.5959 11.4336 11.5961 11.4336 11.5962C11.4336 11.5964 11.4336 11.5966 11.4336 11.5968C11.4336 11.5969 11.4336 11.5971 11.4336 11.5973C11.4336 11.5975 11.4336 11.5976 11.4336 11.5978C11.4336 11.598 11.4336 11.5982 11.4336 11.5983C11.4336 11.5985 11.4336 11.5987 11.4336 11.5988C11.4336 11.599 11.4336 11.5992 11.4336 11.5994C11.4336 11.5995 11.4336 11.5997 11.4336 11.5999C11.4336 11.6001 11.4336 11.6002 11.4336 11.6004C11.4336 11.6006 11.4336 11.6008 11.4336 11.6009C11.4336 11.6011 11.4336 11.6013 11.4336 11.6014C11.4336 11.6016 11.4336 11.6018 11.4336 11.602C11.4336 11.6021 11.4336 11.6023 11.4336 11.6025C11.4336 11.6027 11.4336 11.6028 11.4336 11.603C11.4336 11.6032 11.4336 11.6033 11.4336 11.6035C11.4336 11.6037 11.4336 11.6039 11.4336 11.604C11.4336 11.6042 11.4336 11.6044 11.4336 11.6045C11.4336 11.6047 11.4336 11.6049 11.4336 11.6051C11.4336 11.6052 11.4336 11.6054 11.4336 11.6056C11.4336 11.6057 11.4336 11.6059 11.4336 11.6061C11.4336 11.6063 11.4336 11.6064 11.4336 11.6066C11.4336 11.6068 11.4336 11.6069 11.4336 11.6071C11.4336 11.6073 11.4336 11.6075 11.4336 11.6076C11.4336 11.6078 11.4336 11.608 11.4336 11.6081C11.4336 11.6083 11.4336 11.6085 11.4336 11.6086C11.4336 11.6088 11.4336 11.609 11.4336 11.6092C11.4336 11.6093 11.4336 11.6095 11.4336 11.6097C11.4336 11.6098 11.4336 11.61 11.4336 11.6102C11.4336 11.6103 11.4336 11.6105 11.4336 11.6107C11.4336 11.6109 11.4336 11.611 11.4336 11.6112C11.4336 11.6114 11.4336 11.6115 11.4336 11.6117C11.4336 11.6119 11.4336 11.612 11.4336 11.6122C11.4336 11.6124 11.4336 11.6125 11.4336 11.6127C11.4336 11.6129 11.4336 11.613 11.4336 11.6132C11.4336 11.6134 11.4336 11.6136 11.4336 11.6137C11.4336 11.6139 11.4336 11.6141 11.4336 11.6142C11.4336 11.6144 11.4336 11.6146 11.4336 11.6147C11.4336 11.6149 11.4336 11.6151 11.4336 11.6152C11.4336 11.6154 11.4336 11.6156 11.4336 11.6157C11.4336 11.6159 11.4336 11.6161 11.4336 11.6162C11.4336 11.6164 11.4336 11.6166 11.4336 11.6167C11.4336 11.6169 11.4336 11.6171 11.4336 11.6172C11.4336 11.6174 11.4336 11.6176 11.4336 11.6177C11.4336 11.6179 11.4336 11.6181 11.4336 11.6182C11.4336 11.6184 11.4336 11.6186 11.4336 11.6187C11.4336 11.6189 11.4336 11.6191 11.4336 11.6192C11.4336 11.6194 11.4336 11.6196 11.4336 11.6197C11.4336 11.6199 11.4336 11.6201 11.4336 11.6202C11.4336 11.6204 11.4336 11.6206 11.4336 11.6207C11.4336 11.6209 11.4336 11.6211 11.4336 11.6212C11.4336 11.6214 11.4336 11.6216 11.4336 11.6217C11.4336 11.6219 11.4336 11.6221 11.4336 11.6222C11.4336 11.6224 11.4336 11.6226 11.4336 11.6227C11.4336 11.6229 11.4336 11.6231 11.4336 11.6232C11.4336 11.6234 11.4336 11.6236 11.4336 11.6237C11.4336 11.6239 11.4336 11.624 11.4336 11.6242C11.4336 11.6244 11.4336 11.6245 11.4336 11.6247C11.4336 11.6249 11.4336 11.625 11.4336 11.6252C11.4336 11.6254 11.4336 11.6255 11.4336 11.6257C11.4336 11.6259 11.4336 11.626 11.4336 11.6262C11.4336 11.6263 11.4336 11.6265 11.4336 11.6267C11.4336 11.6268 11.4336 11.627 11.4336 11.6272C11.4336 11.6273 11.4336 11.6275 11.4336 11.6277C11.4336 11.6278 11.4336 11.628 11.4336 11.6281C11.4336 11.6283 11.4336 11.6285 11.4336 11.6286C11.4336 11.6288 11.4336 11.629 11.4336 11.6291C11.4336 11.6293 11.4336 11.6294 11.4336 11.6296C11.4336 11.6298 11.4336 11.6299 11.4336 11.6301C11.4336 11.6303 11.4336 11.6304 11.4336 11.6306C11.4336 11.6307 11.4336 11.6309 11.4336 11.6311C11.4336 11.6312 11.4336 11.6314 11.4336 11.6316C11.4336 11.6317 11.4336 11.6319 11.4336 11.632C11.4336 11.6322 11.4336 11.6324 11.4336 11.6325C11.4336 11.6327 11.4336 11.6329 11.4336 11.633C11.4336 11.6332 11.4336 11.6333 11.4336 11.6335C11.4336 11.6337 11.4336 11.6338 11.4336 11.634C11.4336 11.6341 11.4336 11.6343 11.4336 11.6345C11.4336 11.6346 11.4336 11.6348 11.4336 11.6349C11.4336 11.6351 11.4336 11.6353 11.4336 11.6354C11.4336 11.6356 11.4336 11.6357 11.4336 11.6359C11.4336 11.6361 11.4336 11.6362 11.4336 11.6364C11.4336 11.6366 11.4336 11.6367 11.4336 11.6369C11.4336 11.637 11.4336 11.6372 11.4336 11.6374C11.4336 11.6375 11.4336 11.6377 11.4336 11.6378C11.4336 11.638 11.4336 11.6381 11.4336 11.6383C11.4336 11.6385 11.4336 11.6386 11.4336 11.6388C11.4336 11.6389 11.4336 11.6391 11.4336 11.6393C11.4336 11.6394 11.4336 11.6396 11.4336 11.6397C11.4336 11.6399 11.4336 11.6401 11.4336 11.6402C11.4336 11.6404 11.4336 11.6405 11.4336 11.6407C11.4336 11.6409 11.4336 11.641 11.4336 11.6412C11.4336 11.6413 11.4336 11.6415 11.4336 11.6416C11.4336 11.6418 11.4336 11.642 11.4336 11.6421C11.4336 11.6423 11.4336 11.6424 11.4336 11.6426C11.4336 11.6427 11.4336 11.6429 11.4336 11.6431C11.4336 11.6432 11.4336 11.6434 11.4336 11.6435C11.4336 11.6437 11.4336 11.6439 11.4336 11.644C11.4336 11.6442 11.4336 11.6443 11.4336 11.6445C11.4336 11.6446 11.4336 11.6448 11.4336 11.645C11.4336 11.6451 11.4336 11.6453 11.4336 11.6454C11.4336 11.6456 11.4336 11.6457 11.4336 11.6459C11.4336 11.646 11.4336 11.6462 11.4336 11.6464C11.4336 11.6465 11.4336 11.6467 11.4336 11.6468C11.4336 11.647 11.4336 11.6471 11.4336 11.6473C11.4336 11.6475 11.4336 11.6476 11.4336 11.6478C11.4336 11.6479 11.4336 11.6481 11.4336 11.6482C11.4336 11.6484 11.4336 11.6485 11.4336 11.6487C11.4336 11.6489 11.4336 11.649 11.4336 11.6492C11.4336 11.6493 11.4336 11.6495 11.4336 11.6496C11.4336 11.6498 11.4336 11.6499 11.4336 11.6501C11.4336 11.6503 11.4336 11.6504 11.4336 11.6506C11.4336 11.6507 11.4336 11.6509 11.4336 11.651C11.4336 11.6512 11.4336 11.6513 11.4336 11.6515C11.4336 11.6516 11.4336 11.6518 11.4336 11.652C11.4336 11.6521 11.4336 11.6523 11.4336 11.6524C11.4336 11.6526 11.4336 11.6527 11.4336 11.6529C11.4336 11.653 11.4336 11.6532 11.4336 11.6533C11.4336 11.6535 11.4336 11.6536 11.4336 11.6538C11.4336 11.654 11.4336 11.6541 11.4336 11.6543C11.4336 11.6544 11.4336 11.6546 11.4336 11.6547C11.4336 11.6549 11.4336 11.655 11.4336 11.6552C11.4336 11.6553 11.4336 11.6555 11.4336 11.6556C11.4336 11.6558 11.4336 11.6559 11.4336 11.6561C11.4336 11.6563 11.4336 11.6564 11.4336 11.6566C11.4336 11.6567 11.4336 11.6569 11.4336 11.657C11.4336 11.6572 11.4336 11.6573 11.4336 11.6575C11.4336 11.6576 11.4336 11.6578 11.4336 11.6579C11.4336 11.6581 11.4336 11.6582 11.4336 11.6584C11.4336 11.6585 11.4336 11.6587 11.4336 11.6588C11.4336 11.659 11.4336 11.6591 11.4336 11.6593C11.4336 11.6594 11.4336 11.6596 11.4336 11.6597C11.4336 11.6599 11.4336 11.66 11.4336 11.6602C11.4336 11.6603 11.4336 11.6605 11.4336 11.6606C11.4336 11.6608 11.4336 11.661 11.4336 11.6611C11.4336 11.6613 11.4336 11.6614 11.4336 11.6616C11.4336 11.6617 11.4336 11.6619 11.4336 11.662C11.4336 11.6622 11.4336 11.6623 11.4336 11.6625C11.4336 11.6626 11.4336 11.6628 11.4336 11.6629C11.4336 11.6631 11.4336 11.6632 11.4336 11.6634C11.4336 11.6635 11.4336 11.6637 11.4336 11.6638C11.4336 11.664 11.4336 11.6641 11.4336 11.6643C11.4336 11.6644 11.4336 11.6646 11.4336 11.6647C11.4336 11.6649 11.4336 11.665 11.4336 11.6651C11.4336 11.6653 11.4336 11.6654 11.4336 11.6656C11.4336 11.6657 11.4336 11.6659 11.4336 11.666C11.4336 11.6662 11.4336 11.6663 11.4336 11.6665C11.4336 11.6666 11.4336 11.6668 11.4336 11.6669C11.4336 11.6671 11.4336 11.6672 11.4336 11.6674C11.4336 11.6675 11.4336 11.6677 11.4336 11.6678C11.4336 11.668 11.4336 11.6681 11.4336 11.6683C11.4336 11.6684 11.4336 11.6686 11.4336 11.6687C11.4336 11.6689 11.4336 11.669 11.4336 11.6692C11.4336 11.6693 11.4336 11.6694 11.4336 11.6696C11.4336 11.6697 11.4336 11.6699 11.4336 11.67C11.4336 11.6702 11.4336 11.6703 11.4336 11.6705C11.4336 11.6706 11.4336 11.6708 11.4336 11.6709C11.4336 11.6711 11.4336 11.6712 11.4336 11.6714C11.4336 11.6715 11.4336 11.6717 11.4336 11.6718C11.4336 11.6719 11.4336 11.6721 11.4336 11.6722C11.4336 11.6724 11.4336 11.6725 11.4336 11.6727C11.4336 11.6728 11.4336 11.673 11.4336 11.6731C11.4336 11.6733 11.4336 11.6734 11.4336 11.6735C11.4336 11.6737 11.4336 11.6738 11.4336 11.674C11.4336 11.6741 11.4336 11.6743 11.4336 11.6744C11.4336 11.6746 11.4336 11.6747 11.4336 11.6749C11.4336 11.675 11.4336 11.6751 11.4336 11.6753C11.4336 11.6754 11.4336 11.6756 11.4336 11.6757C11.4336 11.6759 11.4336 11.676 11.4336 11.6762C11.4336 11.6763 11.4336 11.6765 11.4336 11.6766C11.4336 11.6767 11.4336 11.6769 11.4336 11.677C11.4336 11.6772 11.4336 11.6773 11.4336 11.6775C11.4336 11.6776 11.4336 11.6777 11.4336 11.6779C11.4336 11.678 11.4336 11.6782 11.4336 11.6783C11.4336 11.6785 11.4336 11.6786 11.4336 11.6788C11.4336 11.6789 11.4336 11.679 11.4336 11.6792C11.4336 11.6793 11.4336 11.6795 11.4336 11.6796C11.4336 11.6798 11.4336 11.6799 11.4336 11.68C11.4336 11.6802 11.4336 11.6803 11.4336 11.6805C11.4336 11.6806 11.4336 11.6808 11.4336 11.6809C11.4336 11.681 11.4336 11.6812 11.4336 11.6813C11.4336 11.6815 11.4336 11.6816 11.4336 11.6818C11.4336 11.6819 11.4336 11.682 11.4336 11.6822C11.4336 11.6823 11.4336 11.6825 11.4336 11.6826C11.4336 11.6828 11.4336 11.6829 11.4336 11.683C11.4336 11.6832 11.4336 11.6833 11.4336 11.6835C11.4336 11.6836 11.4336 11.6837 11.4336 11.6839C11.4336 11.684 11.4336 11.6842 11.4336 11.6843C11.4336 11.6844 11.4336 11.6846 11.4336 11.6847C11.4336 11.6849 11.4336 11.685 11.4336 11.6852C11.4336 11.6853 11.4336 11.6854 11.4336 11.6856C11.4336 11.6857 11.4336 11.6859 11.4336 11.686C11.4336 11.6861 11.4336 11.6863 11.4336 11.6864C11.4336 11.6866 11.4336 11.6867 11.4336 11.6868C11.4336 11.687 11.4336 11.6871 11.4336 11.6873C11.4336 11.6874 11.4336 11.6875 11.4336 11.6877C11.4336 11.6878 11.4336 11.688 11.4336 11.6881C11.4336 11.6882 11.4336 11.6884 11.4336 11.6885C11.4336 11.6887 11.4336 11.6888 11.4336 11.6889C11.4336 11.6891 11.4336 11.6892 11.4336 11.6894C11.4336 11.6895 11.4336 11.6896 11.4336 11.6898C11.4336 11.6899 11.4336 11.69 11.4336 11.6902C11.4336 11.6903 11.4336 11.6905 11.4336 11.6906C11.4336 11.6907 11.4336 11.6909 11.4336 11.691C11.4336 11.6912 11.4336 11.6913 11.4336 11.6914C11.4336 11.6916 11.4336 11.6917 11.4336 11.6918C11.4336 11.692 11.4336 11.6921 11.4336 11.6923C11.4336 11.6924 11.4336 11.6925 11.4336 11.6927C11.4336 11.6928 11.4336 11.6929 11.4336 11.6931C11.4336 11.6932 11.4336 11.6934 11.4336 11.6935C11.4336 11.6936 11.4336 11.6938 11.4336 11.6939C11.4336 11.694 11.4336 11.6942 11.4336 11.6943C11.4336 11.6945 11.4336 11.6946 11.4336 11.6947C11.4336 11.6949 11.4336 11.695 11.4336 11.6951C11.4336 11.6953 11.4336 11.6954 11.4336 11.6955C11.4336 11.6957 11.4336 11.6958 11.4336 11.696C11.4336 11.6961 11.4336 11.6962 11.4336 11.6964C11.4336 11.6965 11.4336 11.6966 11.4336 11.6968C11.4336 11.6969 11.4336 11.697 11.4336 11.6972C11.4336 11.6973 11.4336 11.6975 11.4336 11.6976C11.4336 11.6977 11.4336 11.6979 11.4336 11.698C11.4336 11.6981 11.4336 11.6983 11.4336 11.6984C11.4336 11.6985 11.4336 11.6987 11.4336 11.6988C11.4336 11.6989 11.4336 11.6991 11.4336 11.6992C11.4336 11.6993 11.4336 11.6995 11.4336 11.6996C11.4336 11.6997 11.4336 11.6999 11.4336 11.7C11.4336 11.7002 11.4336 11.7003 11.4336 11.7004C11.4336 11.7006 11.4336 11.7007 11.4336 11.7008C11.4336 11.701 11.4336 11.7011 11.4336 11.7012C11.4336 11.7014 11.4336 11.7015 11.4336 11.7016C11.4336 11.7018 11.4336 11.7019 11.4336 11.702C11.4336 11.7022 11.4336 11.7023 11.4336 11.7024C11.4336 11.7026 11.4336 11.7027 11.4336 11.7028C11.4336 11.703 11.4336 11.7031 11.4336 11.7032C11.4336 11.7034 11.4336 11.7035 11.4336 11.7036C11.4336 11.7038 11.4336 11.7039 11.4336 11.704C11.4336 11.7042 11.4336 11.7043 11.4336 11.7044C11.4336 11.7046 11.4336 11.7047 11.4336 11.7048C11.4336 11.7049 11.4336 11.7051 11.4336 11.7052C11.4336 11.7053 11.4336 11.7055 11.4336 11.7056C11.4336 11.7057 11.4336 11.7059 11.4336 11.706C11.4336 11.7061 11.4336 11.7063 11.4336 11.7064C11.4336 11.7065 11.4336 11.7067 11.4336 11.7068C11.4336 11.7069 11.4336 11.7071 11.4336 11.7072C11.4336 11.7073 11.4336 11.7075 11.4336 11.7076C11.4336 11.7077 11.4336 11.7078 11.4336 11.708C11.4336 11.7081 11.4336 11.7082 11.4336 11.7084C11.4336 11.7085 11.4336 11.7086 11.4336 11.7088C11.4336 11.7089 11.4336 11.709 11.4336 11.7091C11.4336 11.7093 11.4336 11.7094 11.4336 11.7095C11.4336 11.7097 11.4336 11.7098 11.4336 11.7099C11.4336 11.7101 11.4336 11.7102 11.4336 11.7103C11.4336 11.7104 11.4336 11.7106 11.4336 11.7107C11.4336 11.7108 11.4336 11.711 11.4336 11.7111C11.4336 11.7112 11.4336 11.7114 11.4336 11.7115C11.4336 11.7116 11.4336 11.7117 11.4336 11.7119C11.4336 11.712 11.4336 11.7121 11.4336 11.7123C11.4336 11.7124 11.4336 11.7125 11.4336 11.7126C11.4336 11.7128 11.4336 11.7129 11.4336 11.713C11.4336 11.7132 11.4336 11.7133 11.4336 11.7134C11.4336 11.7135 11.4336 11.7137 11.4336 11.7138C11.4336 11.7139 11.4336 11.7141 11.4336 11.7142C11.4336 11.7143 11.4336 11.7144 11.4336 11.7146C11.4336 11.7147 11.4336 11.7148 11.4336 11.715C11.4336 11.7151 11.4336 11.7152 11.4336 11.7153C11.4336 11.7155 11.4336 11.7156 11.4336 11.7157C11.4336 11.7158 11.4336 11.716 11.4336 11.7161C11.4336 11.7162 11.4336 11.7164 11.4336 11.7165C11.4336 11.7166 11.4336 11.7167 11.4336 11.7169C11.4336 11.717 11.4336 11.7171 11.4336 11.7172C11.4336 11.7174 11.4336 11.7175 11.4336 11.7176C11.4336 11.7177 11.4336 11.7179 11.4336 11.718C11.4336 11.7181 11.4336 11.7183 11.4336 11.7184C11.4336 11.7185 11.4336 11.7186 11.4336 11.7188C11.4336 11.7189 11.4336 11.719 11.4336 11.7191C11.4336 11.7193 11.4336 11.7194 11.4336 11.7195C11.4336 11.7196 11.4336 11.7198 11.4336 11.7199C11.4336 11.72 11.4336 11.7201 11.4336 11.7203C11.4336 11.7204 11.4336 11.7205 11.4336 11.7206C11.4336 11.7208 11.4336 11.7209 11.4336 11.721C11.4336 11.7211 11.4336 11.7213 11.4336 11.7214C11.4336 11.7215 11.4336 11.7216 11.4336 11.7218C11.4336 11.7219 11.4336 11.722 11.4336 11.7221C11.4336 11.7223 11.4336 11.7224 11.4336 11.7225C11.4336 11.7226 11.4336 11.7227 11.4336 11.7229C11.4336 11.723 11.4336 11.7231 11.4336 11.7232C11.4336 11.7234 11.4336 11.7235 11.4336 11.7236C11.4336 11.7237 11.4336 11.7239 11.4336 11.724C11.4336 11.7241 11.4336 11.7242 11.4336 11.7244C11.4336 11.7245 11.4336 11.7246 11.4336 11.7247C11.4336 11.7248 11.4336 11.725 11.4336 11.7251C11.4336 11.7252 11.4336 11.7253 11.4336 11.7255C11.4336 11.7256 11.4336 11.7257 11.4336 11.7258C11.4336 11.726 11.4336 11.7261 11.4336 11.7262C11.4336 11.7263 11.4336 11.7264 11.4336 11.7266H13.4336C13.4336 11.7264 13.4336 11.7263 13.4336 11.7262C13.4336 11.7261 13.4336 11.726 13.4336 11.7258C13.4336 11.7257 13.4336 11.7256 13.4336 11.7255C13.4336 11.7253 13.4336 11.7252 13.4336 11.7251C13.4336 11.725 13.4336 11.7248 13.4336 11.7247C13.4336 11.7246 13.4336 11.7245 13.4336 11.7244C13.4336 11.7242 13.4336 11.7241 13.4336 11.724C13.4336 11.7239 13.4336 11.7237 13.4336 11.7236C13.4336 11.7235 13.4336 11.7234 13.4336 11.7232C13.4336 11.7231 13.4336 11.723 13.4336 11.7229C13.4336 11.7227 13.4336 11.7226 13.4336 11.7225C13.4336 11.7224 13.4336 11.7223 13.4336 11.7221C13.4336 11.722 13.4336 11.7219 13.4336 11.7218C13.4336 11.7216 13.4336 11.7215 13.4336 11.7214C13.4336 11.7213 13.4336 11.7211 13.4336 11.721C13.4336 11.7209 13.4336 11.7208 13.4336 11.7206C13.4336 11.7205 13.4336 11.7204 13.4336 11.7203C13.4336 11.7201 13.4336 11.72 13.4336 11.7199C13.4336 11.7198 13.4336 11.7196 13.4336 11.7195C13.4336 11.7194 13.4336 11.7193 13.4336 11.7191C13.4336 11.719 13.4336 11.7189 13.4336 11.7188C13.4336 11.7186 13.4336 11.7185 13.4336 11.7184C13.4336 11.7183 13.4336 11.7181 13.4336 11.718C13.4336 11.7179 13.4336 11.7177 13.4336 11.7176C13.4336 11.7175 13.4336 11.7174 13.4336 11.7172C13.4336 11.7171 13.4336 11.717 13.4336 11.7169C13.4336 11.7167 13.4336 11.7166 13.4336 11.7165C13.4336 11.7164 13.4336 11.7162 13.4336 11.7161C13.4336 11.716 13.4336 11.7158 13.4336 11.7157C13.4336 11.7156 13.4336 11.7155 13.4336 11.7153C13.4336 11.7152 13.4336 11.7151 13.4336 11.715C13.4336 11.7148 13.4336 11.7147 13.4336 11.7146C13.4336 11.7144 13.4336 11.7143 13.4336 11.7142C13.4336 11.7141 13.4336 11.7139 13.4336 11.7138C13.4336 11.7137 13.4336 11.7135 13.4336 11.7134C13.4336 11.7133 13.4336 11.7132 13.4336 11.713C13.4336 11.7129 13.4336 11.7128 13.4336 11.7126C13.4336 11.7125 13.4336 11.7124 13.4336 11.7123C13.4336 11.7121 13.4336 11.712 13.4336 11.7119C13.4336 11.7117 13.4336 11.7116 13.4336 11.7115C13.4336 11.7114 13.4336 11.7112 13.4336 11.7111C13.4336 11.711 13.4336 11.7108 13.4336 11.7107C13.4336 11.7106 13.4336 11.7104 13.4336 11.7103C13.4336 11.7102 13.4336 11.7101 13.4336 11.7099C13.4336 11.7098 13.4336 11.7097 13.4336 11.7095C13.4336 11.7094 13.4336 11.7093 13.4336 11.7091C13.4336 11.709 13.4336 11.7089 13.4336 11.7088C13.4336 11.7086 13.4336 11.7085 13.4336 11.7084C13.4336 11.7082 13.4336 11.7081 13.4336 11.708C13.4336 11.7078 13.4336 11.7077 13.4336 11.7076C13.4336 11.7075 13.4336 11.7073 13.4336 11.7072C13.4336 11.7071 13.4336 11.7069 13.4336 11.7068C13.4336 11.7067 13.4336 11.7065 13.4336 11.7064C13.4336 11.7063 13.4336 11.7061 13.4336 11.706C13.4336 11.7059 13.4336 11.7057 13.4336 11.7056C13.4336 11.7055 13.4336 11.7053 13.4336 11.7052C13.4336 11.7051 13.4336 11.7049 13.4336 11.7048C13.4336 11.7047 13.4336 11.7046 13.4336 11.7044C13.4336 11.7043 13.4336 11.7042 13.4336 11.704C13.4336 11.7039 13.4336 11.7038 13.4336 11.7036C13.4336 11.7035 13.4336 11.7034 13.4336 11.7032C13.4336 11.7031 13.4336 11.703 13.4336 11.7028C13.4336 11.7027 13.4336 11.7026 13.4336 11.7024C13.4336 11.7023 13.4336 11.7022 13.4336 11.702C13.4336 11.7019 13.4336 11.7018 13.4336 11.7016C13.4336 11.7015 13.4336 11.7014 13.4336 11.7012C13.4336 11.7011 13.4336 11.701 13.4336 11.7008C13.4336 11.7007 13.4336 11.7006 13.4336 11.7004C13.4336 11.7003 13.4336 11.7002 13.4336 11.7C13.4336 11.6999 13.4336 11.6997 13.4336 11.6996C13.4336 11.6995 13.4336 11.6993 13.4336 11.6992C13.4336 11.6991 13.4336 11.6989 13.4336 11.6988C13.4336 11.6987 13.4336 11.6985 13.4336 11.6984C13.4336 11.6983 13.4336 11.6981 13.4336 11.698C13.4336 11.6979 13.4336 11.6977 13.4336 11.6976C13.4336 11.6975 13.4336 11.6973 13.4336 11.6972C13.4336 11.697 13.4336 11.6969 13.4336 11.6968C13.4336 11.6966 13.4336 11.6965 13.4336 11.6964C13.4336 11.6962 13.4336 11.6961 13.4336 11.696C13.4336 11.6958 13.4336 11.6957 13.4336 11.6955C13.4336 11.6954 13.4336 11.6953 13.4336 11.6951C13.4336 11.695 13.4336 11.6949 13.4336 11.6947C13.4336 11.6946 13.4336 11.6945 13.4336 11.6943C13.4336 11.6942 13.4336 11.694 13.4336 11.6939C13.4336 11.6938 13.4336 11.6936 13.4336 11.6935C13.4336 11.6934 13.4336 11.6932 13.4336 11.6931C13.4336 11.6929 13.4336 11.6928 13.4336 11.6927C13.4336 11.6925 13.4336 11.6924 13.4336 11.6923C13.4336 11.6921 13.4336 11.692 13.4336 11.6918C13.4336 11.6917 13.4336 11.6916 13.4336 11.6914C13.4336 11.6913 13.4336 11.6912 13.4336 11.691C13.4336 11.6909 13.4336 11.6907 13.4336 11.6906C13.4336 11.6905 13.4336 11.6903 13.4336 11.6902C13.4336 11.69 13.4336 11.6899 13.4336 11.6898C13.4336 11.6896 13.4336 11.6895 13.4336 11.6894C13.4336 11.6892 13.4336 11.6891 13.4336 11.6889C13.4336 11.6888 13.4336 11.6887 13.4336 11.6885C13.4336 11.6884 13.4336 11.6882 13.4336 11.6881C13.4336 11.688 13.4336 11.6878 13.4336 11.6877C13.4336 11.6875 13.4336 11.6874 13.4336 11.6873C13.4336 11.6871 13.4336 11.687 13.4336 11.6868C13.4336 11.6867 13.4336 11.6866 13.4336 11.6864C13.4336 11.6863 13.4336 11.6861 13.4336 11.686C13.4336 11.6859 13.4336 11.6857 13.4336 11.6856C13.4336 11.6854 13.4336 11.6853 13.4336 11.6852C13.4336 11.685 13.4336 11.6849 13.4336 11.6847C13.4336 11.6846 13.4336 11.6844 13.4336 11.6843C13.4336 11.6842 13.4336 11.684 13.4336 11.6839C13.4336 11.6837 13.4336 11.6836 13.4336 11.6835C13.4336 11.6833 13.4336 11.6832 13.4336 11.683C13.4336 11.6829 13.4336 11.6828 13.4336 11.6826C13.4336 11.6825 13.4336 11.6823 13.4336 11.6822C13.4336 11.682 13.4336 11.6819 13.4336 11.6818C13.4336 11.6816 13.4336 11.6815 13.4336 11.6813C13.4336 11.6812 13.4336 11.681 13.4336 11.6809C13.4336 11.6808 13.4336 11.6806 13.4336 11.6805C13.4336 11.6803 13.4336 11.6802 13.4336 11.68C13.4336 11.6799 13.4336 11.6798 13.4336 11.6796C13.4336 11.6795 13.4336 11.6793 13.4336 11.6792C13.4336 11.679 13.4336 11.6789 13.4336 11.6788C13.4336 11.6786 13.4336 11.6785 13.4336 11.6783C13.4336 11.6782 13.4336 11.678 13.4336 11.6779C13.4336 11.6777 13.4336 11.6776 13.4336 11.6775C13.4336 11.6773 13.4336 11.6772 13.4336 11.677C13.4336 11.6769 13.4336 11.6767 13.4336 11.6766C13.4336 11.6765 13.4336 11.6763 13.4336 11.6762C13.4336 11.676 13.4336 11.6759 13.4336 11.6757C13.4336 11.6756 13.4336 11.6754 13.4336 11.6753C13.4336 11.6751 13.4336 11.675 13.4336 11.6749C13.4336 11.6747 13.4336 11.6746 13.4336 11.6744C13.4336 11.6743 13.4336 11.6741 13.4336 11.674C13.4336 11.6738 13.4336 11.6737 13.4336 11.6735C13.4336 11.6734 13.4336 11.6733 13.4336 11.6731C13.4336 11.673 13.4336 11.6728 13.4336 11.6727C13.4336 11.6725 13.4336 11.6724 13.4336 11.6722C13.4336 11.6721 13.4336 11.6719 13.4336 11.6718C13.4336 11.6717 13.4336 11.6715 13.4336 11.6714C13.4336 11.6712 13.4336 11.6711 13.4336 11.6709C13.4336 11.6708 13.4336 11.6706 13.4336 11.6705C13.4336 11.6703 13.4336 11.6702 13.4336 11.67C13.4336 11.6699 13.4336 11.6697 13.4336 11.6696C13.4336 11.6694 13.4336 11.6693 13.4336 11.6692C13.4336 11.669 13.4336 11.6689 13.4336 11.6687C13.4336 11.6686 13.4336 11.6684 13.4336 11.6683C13.4336 11.6681 13.4336 11.668 13.4336 11.6678C13.4336 11.6677 13.4336 11.6675 13.4336 11.6674C13.4336 11.6672 13.4336 11.6671 13.4336 11.6669C13.4336 11.6668 13.4336 11.6666 13.4336 11.6665C13.4336 11.6663 13.4336 11.6662 13.4336 11.666C13.4336 11.6659 13.4336 11.6657 13.4336 11.6656C13.4336 11.6654 13.4336 11.6653 13.4336 11.6651C13.4336 11.665 13.4336 11.6649 13.4336 11.6647C13.4336 11.6646 13.4336 11.6644 13.4336 11.6643C13.4336 11.6641 13.4336 11.664 13.4336 11.6638C13.4336 11.6637 13.4336 11.6635 13.4336 11.6634C13.4336 11.6632 13.4336 11.6631 13.4336 11.6629C13.4336 11.6628 13.4336 11.6626 13.4336 11.6625C13.4336 11.6623 13.4336 11.6622 13.4336 11.662C13.4336 11.6619 13.4336 11.6617 13.4336 11.6616C13.4336 11.6614 13.4336 11.6613 13.4336 11.6611C13.4336 11.661 13.4336 11.6608 13.4336 11.6606C13.4336 11.6605 13.4336 11.6603 13.4336 11.6602C13.4336 11.66 13.4336 11.6599 13.4336 11.6597C13.4336 11.6596 13.4336 11.6594 13.4336 11.6593C13.4336 11.6591 13.4336 11.659 13.4336 11.6588C13.4336 11.6587 13.4336 11.6585 13.4336 11.6584C13.4336 11.6582 13.4336 11.6581 13.4336 11.6579C13.4336 11.6578 13.4336 11.6576 13.4336 11.6575C13.4336 11.6573 13.4336 11.6572 13.4336 11.657C13.4336 11.6569 13.4336 11.6567 13.4336 11.6566C13.4336 11.6564 13.4336 11.6563 13.4336 11.6561C13.4336 11.6559 13.4336 11.6558 13.4336 11.6556C13.4336 11.6555 13.4336 11.6553 13.4336 11.6552C13.4336 11.655 13.4336 11.6549 13.4336 11.6547C13.4336 11.6546 13.4336 11.6544 13.4336 11.6543C13.4336 11.6541 13.4336 11.654 13.4336 11.6538C13.4336 11.6536 13.4336 11.6535 13.4336 11.6533C13.4336 11.6532 13.4336 11.653 13.4336 11.6529C13.4336 11.6527 13.4336 11.6526 13.4336 11.6524C13.4336 11.6523 13.4336 11.6521 13.4336 11.652C13.4336 11.6518 13.4336 11.6516 13.4336 11.6515C13.4336 11.6513 13.4336 11.6512 13.4336 11.651C13.4336 11.6509 13.4336 11.6507 13.4336 11.6506C13.4336 11.6504 13.4336 11.6503 13.4336 11.6501C13.4336 11.6499 13.4336 11.6498 13.4336 11.6496C13.4336 11.6495 13.4336 11.6493 13.4336 11.6492C13.4336 11.649 13.4336 11.6489 13.4336 11.6487C13.4336 11.6485 13.4336 11.6484 13.4336 11.6482C13.4336 11.6481 13.4336 11.6479 13.4336 11.6478C13.4336 11.6476 13.4336 11.6475 13.4336 11.6473C13.4336 11.6471 13.4336 11.647 13.4336 11.6468C13.4336 11.6467 13.4336 11.6465 13.4336 11.6464C13.4336 11.6462 13.4336 11.646 13.4336 11.6459C13.4336 11.6457 13.4336 11.6456 13.4336 11.6454C13.4336 11.6453 13.4336 11.6451 13.4336 11.645C13.4336 11.6448 13.4336 11.6446 13.4336 11.6445C13.4336 11.6443 13.4336 11.6442 13.4336 11.644C13.4336 11.6439 13.4336 11.6437 13.4336 11.6435C13.4336 11.6434 13.4336 11.6432 13.4336 11.6431C13.4336 11.6429 13.4336 11.6427 13.4336 11.6426C13.4336 11.6424 13.4336 11.6423 13.4336 11.6421C13.4336 11.642 13.4336 11.6418 13.4336 11.6416C13.4336 11.6415 13.4336 11.6413 13.4336 11.6412C13.4336 11.641 13.4336 11.6409 13.4336 11.6407C13.4336 11.6405 13.4336 11.6404 13.4336 11.6402C13.4336 11.6401 13.4336 11.6399 13.4336 11.6397C13.4336 11.6396 13.4336 11.6394 13.4336 11.6393C13.4336 11.6391 13.4336 11.6389 13.4336 11.6388C13.4336 11.6386 13.4336 11.6385 13.4336 11.6383C13.4336 11.6381 13.4336 11.638 13.4336 11.6378C13.4336 11.6377 13.4336 11.6375 13.4336 11.6374C13.4336 11.6372 13.4336 11.637 13.4336 11.6369C13.4336 11.6367 13.4336 11.6366 13.4336 11.6364C13.4336 11.6362 13.4336 11.6361 13.4336 11.6359C13.4336 11.6357 13.4336 11.6356 13.4336 11.6354C13.4336 11.6353 13.4336 11.6351 13.4336 11.6349C13.4336 11.6348 13.4336 11.6346 13.4336 11.6345C13.4336 11.6343 13.4336 11.6341 13.4336 11.634C13.4336 11.6338 13.4336 11.6337 13.4336 11.6335C13.4336 11.6333 13.4336 11.6332 13.4336 11.633C13.4336 11.6329 13.4336 11.6327 13.4336 11.6325C13.4336 11.6324 13.4336 11.6322 13.4336 11.632C13.4336 11.6319 13.4336 11.6317 13.4336 11.6316C13.4336 11.6314 13.4336 11.6312 13.4336 11.6311C13.4336 11.6309 13.4336 11.6307 13.4336 11.6306C13.4336 11.6304 13.4336 11.6303 13.4336 11.6301C13.4336 11.6299 13.4336 11.6298 13.4336 11.6296C13.4336 11.6294 13.4336 11.6293 13.4336 11.6291C13.4336 11.629 13.4336 11.6288 13.4336 11.6286C13.4336 11.6285 13.4336 11.6283 13.4336 11.6281C13.4336 11.628 13.4336 11.6278 13.4336 11.6277C13.4336 11.6275 13.4336 11.6273 13.4336 11.6272C13.4336 11.627 13.4336 11.6268 13.4336 11.6267C13.4336 11.6265 13.4336 11.6263 13.4336 11.6262C13.4336 11.626 13.4336 11.6259 13.4336 11.6257C13.4336 11.6255 13.4336 11.6254 13.4336 11.6252C13.4336 11.625 13.4336 11.6249 13.4336 11.6247C13.4336 11.6245 13.4336 11.6244 13.4336 11.6242C13.4336 11.624 13.4336 11.6239 13.4336 11.6237C13.4336 11.6236 13.4336 11.6234 13.4336 11.6232C13.4336 11.6231 13.4336 11.6229 13.4336 11.6227C13.4336 11.6226 13.4336 11.6224 13.4336 11.6222C13.4336 11.6221 13.4336 11.6219 13.4336 11.6217C13.4336 11.6216 13.4336 11.6214 13.4336 11.6212C13.4336 11.6211 13.4336 11.6209 13.4336 11.6207C13.4336 11.6206 13.4336 11.6204 13.4336 11.6202C13.4336 11.6201 13.4336 11.6199 13.4336 11.6197C13.4336 11.6196 13.4336 11.6194 13.4336 11.6192C13.4336 11.6191 13.4336 11.6189 13.4336 11.6187C13.4336 11.6186 13.4336 11.6184 13.4336 11.6182C13.4336 11.6181 13.4336 11.6179 13.4336 11.6177C13.4336 11.6176 13.4336 11.6174 13.4336 11.6172C13.4336 11.6171 13.4336 11.6169 13.4336 11.6167C13.4336 11.6166 13.4336 11.6164 13.4336 11.6162C13.4336 11.6161 13.4336 11.6159 13.4336 11.6157C13.4336 11.6156 13.4336 11.6154 13.4336 11.6152C13.4336 11.6151 13.4336 11.6149 13.4336 11.6147C13.4336 11.6146 13.4336 11.6144 13.4336 11.6142C13.4336 11.6141 13.4336 11.6139 13.4336 11.6137C13.4336 11.6136 13.4336 11.6134 13.4336 11.6132C13.4336 11.613 13.4336 11.6129 13.4336 11.6127C13.4336 11.6125 13.4336 11.6124 13.4336 11.6122C13.4336 11.612 13.4336 11.6119 13.4336 11.6117C13.4336 11.6115 13.4336 11.6114 13.4336 11.6112C13.4336 11.611 13.4336 11.6109 13.4336 11.6107C13.4336 11.6105 13.4336 11.6103 13.4336 11.6102C13.4336 11.61 13.4336 11.6098 13.4336 11.6097C13.4336 11.6095 13.4336 11.6093 13.4336 11.6092C13.4336 11.609 13.4336 11.6088 13.4336 11.6086C13.4336 11.6085 13.4336 11.6083 13.4336 11.6081C13.4336 11.608 13.4336 11.6078 13.4336 11.6076C13.4336 11.6075 13.4336 11.6073 13.4336 11.6071C13.4336 11.6069 13.4336 11.6068 13.4336 11.6066C13.4336 11.6064 13.4336 11.6063 13.4336 11.6061C13.4336 11.6059 13.4336 11.6057 13.4336 11.6056C13.4336 11.6054 13.4336 11.6052 13.4336 11.6051C13.4336 11.6049 13.4336 11.6047 13.4336 11.6045C13.4336 11.6044 13.4336 11.6042 13.4336 11.604C13.4336 11.6039 13.4336 11.6037 13.4336 11.6035C13.4336 11.6033 13.4336 11.6032 13.4336 11.603C13.4336 11.6028 13.4336 11.6027 13.4336 11.6025C13.4336 11.6023 13.4336 11.6021 13.4336 11.602C13.4336 11.6018 13.4336 11.6016 13.4336 11.6014C13.4336 11.6013 13.4336 11.6011 13.4336 11.6009C13.4336 11.6008 13.4336 11.6006 13.4336 11.6004C13.4336 11.6002 13.4336 11.6001 13.4336 11.5999C13.4336 11.5997 13.4336 11.5995 13.4336 11.5994C13.4336 11.5992 13.4336 11.599 13.4336 11.5988C13.4336 11.5987 13.4336 11.5985 13.4336 11.5983C13.4336 11.5982 13.4336 11.598 13.4336 11.5978C13.4336 11.5976 13.4336 11.5975 13.4336 11.5973C13.4336 11.5971 13.4336 11.5969 13.4336 11.5968C13.4336 11.5966 13.4336 11.5964 13.4336 11.5962C13.4336 11.5961 13.4336 11.5959 13.4336 11.5957C13.4336 11.5955 13.4336 11.5954 13.4336 11.5952C13.4336 11.595 13.4336 11.5948 13.4336 11.5947C13.4336 11.5945 13.4336 11.5943 13.4336 11.5941C13.4336 11.594 13.4336 11.5938 13.4336 11.5936C13.4336 11.5934 13.4336 11.5933 13.4336 11.5931C13.4336 11.5929 13.4336 11.5927 13.4336 11.5926C13.4336 11.5924 13.4336 11.5922 13.4336 11.592C13.4336 11.5919 13.4336 11.5917 13.4336 11.5915C13.4336 11.5913 13.4336 11.5912 13.4336 11.591C13.4336 11.5908 13.4336 11.5906 13.4336 11.5904C13.4336 11.5903 13.4336 11.5901 13.4336 11.5899C13.4336 11.5897 13.4336 11.5896 13.4336 11.5894C13.4336 11.5892 13.4336 11.589 13.4336 11.5889C13.4336 11.5887 13.4336 11.5885 13.4336 11.5883C13.4336 11.5881 13.4336 11.588 13.4336 11.5878C13.4336 11.5876 13.4336 11.5874 13.4336 11.5873C13.4336 11.5871 13.4336 11.5869 13.4336 11.5867C13.4336 11.5866 13.4336 11.5864 13.4336 11.5862C13.4336 11.586 13.4336 11.5858 13.4336 11.5857C13.4336 11.5855 13.4336 11.5853 13.4336 11.5851C13.4336 11.5849 13.4336 11.5848 13.4336 11.5846C13.4336 11.5844 13.4336 11.5842 13.4336 11.5841C13.4336 11.5839 13.4336 11.5837 13.4336 11.5835C13.4336 11.5833 13.4336 11.5832 13.4336 11.583C13.4336 11.5828 13.4336 11.5826 13.4336 11.5824C13.4336 11.5823 13.4336 11.5821 13.4336 11.5819C13.4336 11.5817 13.4336 11.5816 13.4336 11.5814C13.4336 11.5812 13.4336 11.581 13.4336 11.5808C13.4336 11.5807 13.4336 11.5805 13.4336 11.5803C13.4336 11.5801 13.4336 11.5799 13.4336 11.5798C13.4336 11.5796 13.4336 11.5794 13.4336 11.5792C13.4336 11.579 13.4336 11.5789 13.4336 11.5787C13.4336 11.5785 13.4336 11.5783 13.4336 11.5781C13.4336 11.578 13.4336 11.5778 13.4336 11.5776C13.4336 11.5774 13.4336 11.5772 13.4336 11.577C13.4336 11.5769 13.4336 11.5767 13.4336 11.5765C13.4336 11.5763 13.4336 11.5761 13.4336 11.576C13.4336 11.5758 13.4336 11.5756 13.4336 11.5754C13.4336 11.5752 13.4336 11.5751 13.4336 11.5749C13.4336 11.5747 13.4336 11.5745 13.4336 11.5743C13.4336 11.5741 13.4336 11.574 13.4336 11.5738C13.4336 11.5736 13.4336 11.5734 13.4336 11.5732C13.4336 11.5731 13.4336 11.5729 13.4336 11.5727C13.4336 11.5725 13.4336 11.5723 13.4336 11.5721C13.4336 11.572 13.4336 11.5718 13.4336 11.5716C13.4336 11.5714 13.4336 11.5712 13.4336 11.571C13.4336 11.5709 13.4336 11.5707 13.4336 11.5705C13.4336 11.5703 13.4336 11.5701 13.4336 11.5699C13.4336 11.5698 13.4336 11.5696 13.4336 11.5694C13.4336 11.5692 13.4336 11.569 13.4336 11.5688C13.4336 11.5687 13.4336 11.5685 13.4336 11.5683C13.4336 11.5681 13.4336 11.5679 13.4336 11.5677C13.4336 11.5676 13.4336 11.5674 13.4336 11.5672C13.4336 11.567 13.4336 11.5668 13.4336 11.5666C13.4336 11.5665 13.4336 11.5663 13.4336 11.5661C13.4336 11.5659 13.4336 11.5657 13.4336 11.5655C13.4336 11.5653 13.4336 11.5652 13.4336 11.565C13.4336 11.5648 13.4336 11.5646 13.4336 11.5644C13.4336 11.5642 13.4336 11.5641 13.4336 11.5639C13.4336 11.5637 13.4336 11.5635 13.4336 11.5633C13.4336 11.5631 13.4336 11.5629 13.4336 11.5628C13.4336 11.5626 13.4336 11.5624 13.4336 11.5622C13.4336 11.562 13.4336 11.5618 13.4336 11.5616C13.4336 11.5615 13.4336 11.5613 13.4336 11.5611C13.4336 11.5609 13.4336 11.5607 13.4336 11.5605C13.4336 11.5603 13.4336 11.5602 13.4336 11.56C13.4336 11.5598 13.4336 11.5596 13.4336 11.5594C13.4336 11.5592 13.4336 11.559 13.4336 11.5588C13.4336 11.5587 13.4336 11.5585 13.4336 11.5583C13.4336 11.5581 13.4336 11.5579 13.4336 11.5577C13.4336 11.5575 13.4336 11.5573 13.4336 11.5572C13.4336 11.557 13.4336 11.5568 13.4336 11.5566C13.4336 11.5564 13.4336 11.5562 13.4336 11.556C13.4336 11.5558 13.4336 11.5557 13.4336 11.5555C13.4336 11.5553 13.4336 11.5551 13.4336 11.5549C13.4336 11.5547 13.4336 11.5545 13.4336 11.5543C13.4336 11.5542 13.4336 11.554 13.4336 11.5538C13.4336 11.5536 13.4336 11.5534 13.4336 11.5532C13.4336 11.553 13.4336 11.5528 13.4336 11.5526C13.4336 11.5525 13.4336 11.5523 13.4336 11.5521C13.4336 11.5519 13.4336 11.5517 13.4336 11.5515C13.4336 11.5513 13.4336 11.5511 13.4336 11.5509C13.4336 11.5508 13.4336 11.5506 13.4336 11.5504C13.4336 11.5502 13.4336 11.55 13.4336 11.5498C13.4336 11.5496 13.4336 11.5494 13.4336 11.5492C13.4336 11.5491 13.4336 11.5489 13.4336 11.5487C13.4336 11.5485 13.4336 11.5483 13.4336 11.5481C13.4336 11.5479 13.4336 11.5477 13.4336 11.5475C13.4336 11.5473 13.4336 11.5471 13.4336 11.547C13.4336 11.5468 13.4336 11.5466 13.4336 11.5464C13.4336 11.5462 13.4336 11.546 13.4336 11.5458C13.4336 11.5456 13.4336 11.5454 13.4336 11.5452C13.4336 11.5451 13.4336 11.5449 13.4336 11.5447C13.4336 11.5445 13.4336 11.5443 13.4336 11.5441C13.4336 11.5439 13.4336 11.5437 13.4336 11.5435C13.4336 11.5433 13.4336 11.5431 13.4336 11.5429C13.4336 11.5428 13.4336 11.5426 13.4336 11.5424C13.4336 11.5422 13.4336 11.542 13.4336 11.5418C13.4336 11.5416 13.4336 11.5414 13.4336 11.5412C13.4336 11.541 13.4336 11.5408 13.4336 11.5406C13.4336 11.5404 13.4336 11.5403 13.4336 11.5401C13.4336 11.5399 13.4336 11.5397 13.4336 11.5395C13.4336 11.5393 13.4336 11.5391 13.4336 11.5389C13.4336 11.5387 13.4336 11.5385 13.4336 11.5383C13.4336 11.5381 13.4336 11.5379 13.4336 11.5377C13.4336 11.5375 13.4336 11.5374 13.4336 11.5372C13.4336 11.537 13.4336 11.5368 13.4336 11.5366C13.4336 11.5364 13.4336 11.5362 13.4336 11.536C13.4336 11.5358 13.4336 11.5356 13.4336 11.5354C13.4336 11.5352 13.4336 11.535 13.4336 11.5348C13.4336 11.5346 13.4336 11.5344 13.4336 11.5343C13.4336 11.5341 13.4336 11.5339 13.4336 11.5337C13.4336 11.5335 13.4336 11.5333 13.4336 11.5331C13.4336 11.5329 13.4336 11.5327 13.4336 11.5325C13.4336 11.5323 13.4336 11.5321 13.4336 11.5319C13.4336 11.5317 13.4336 11.5315 13.4336 11.5313C13.4336 11.5311 13.4336 11.5309 13.4336 11.5307C13.4336 11.5305 13.4336 11.5304 13.4336 11.5302C13.4336 11.53 13.4336 11.5298 13.4336 11.5296C13.4336 11.5294 13.4336 11.5292 13.4336 11.529C13.4336 11.5288 13.4336 11.5286 13.4336 11.5284C13.4336 11.5282 13.4336 11.528 13.4336 11.5278C13.4336 11.5276 13.4336 11.5274 13.4336 11.5272C13.4336 11.527 13.4336 11.5268 13.4336 11.5266C13.4336 11.5264 13.4336 11.5262 13.4336 11.526C13.4336 11.5258 13.4336 11.5256 13.4336 11.5254C13.4336 11.5252 13.4336 11.525 13.4336 11.5248C13.4336 11.5247 13.4336 11.5245 13.4336 11.5243C13.4336 11.5241 13.4336 11.5239 13.4336 11.5237C13.4336 11.5235 13.4336 11.5233 13.4336 11.5231C13.4336 11.5229 13.4336 11.5227 13.4336 11.5225C13.4336 11.5223 13.4336 11.5221 13.4336 11.5219C13.4336 11.5217 13.4336 11.5215 13.4336 11.5213C13.4336 11.5211 13.4336 11.5209 13.4336 11.5207C13.4336 11.5205 13.4336 11.5203 13.4336 11.5201C13.4336 11.5199 13.4336 11.5197 13.4336 11.5195C13.4336 11.5193 13.4336 11.5191 13.4336 11.5189C13.4336 11.5187 13.4336 11.5185 13.4336 11.5183C13.4336 11.5181 13.4336 11.5179 13.4336 11.5177C13.4336 11.5175 13.4336 11.5173 13.4336 11.5171C13.4336 11.5169 13.4336 11.5167 13.4336 11.5165C13.4336 11.5163 13.4336 11.5161 13.4336 11.5159C13.4336 11.5157 13.4336 11.5155 13.4336 11.5153C13.4336 11.5151 13.4336 11.5149 13.4336 11.5147C13.4336 11.5145 13.4336 11.5143 13.4336 11.5141C13.4336 11.5139 13.4336 11.5137 13.4336 11.5135C13.4336 11.5133 13.4336 11.5131 13.4336 11.5129C13.4336 11.5127 13.4336 11.5125 13.4336 11.5123C13.4336 11.5121 13.4336 11.5119 13.4336 11.5117C13.4336 11.5115 13.4336 11.5113 13.4336 11.5111C13.4336 11.5109 13.4336 11.5107 13.4336 11.5105C13.4336 11.5103 13.4336 11.5101 13.4336 11.5099C13.4336 11.5097 13.4336 11.5095 13.4336 11.5093C13.4336 11.5091 13.4336 11.5089 13.4336 11.5087C13.4336 11.5085 13.4336 11.5083 13.4336 11.5081C13.4336 11.5079 13.4336 11.5077 13.4336 11.5075C13.4336 11.5073 13.4336 11.507 13.4336 11.5068C13.4336 11.5066 13.4336 11.5064 13.4336 11.5062C13.4336 11.506 13.4336 11.5058 13.4336 11.5056C13.4336 11.5054 13.4336 11.5052 13.4336 11.505C13.4336 11.5048 13.4336 11.5046 13.4336 11.5044C13.4336 11.5042 13.4336 11.504 13.4336 11.5038C13.4336 11.5036 13.4336 11.5034 13.4336 11.5032C13.4336 11.503 13.4336 11.5028 13.4336 11.5026C13.4336 11.5024 13.4336 11.5022 13.4336 11.502C13.4336 11.5018 13.4336 11.5016 13.4336 11.5013C13.4336 11.5011 13.4336 11.5009 13.4336 11.5007C13.4336 11.5005 13.4336 11.5003 13.4336 11.5001C13.4336 11.4999 13.4336 11.4997 13.4336 11.4995C13.4336 11.4993 13.4336 11.4991 13.4336 11.4989C13.4336 11.4987 13.4336 11.4985 13.4336 11.4983C13.4336 11.4981 13.4336 11.4979 13.4336 11.4977C13.4336 11.4975 13.4336 11.4973 13.4336 11.497C13.4336 11.4968 13.4336 11.4966 13.4336 11.4964C13.4336 11.4962 13.4336 11.496 13.4336 11.4958C13.4336 11.4956 13.4336 11.4954 13.4336 11.4952C13.4336 11.495 13.4336 11.4948 13.4336 11.4946C13.4336 11.4944 13.4336 11.4942 13.4336 11.494C13.4336 11.4937 13.4336 11.4935 13.4336 11.4933C13.4336 11.4931 13.4336 11.4929 13.4336 11.4927C13.4336 11.4925 13.4336 11.4923 13.4336 11.4921C13.4336 11.4919 13.4336 11.4917 13.4336 11.4915C13.4336 11.4913 13.4336 11.4911 13.4336 11.4909C13.4336 11.4906 13.4336 11.4904 13.4336 11.4902C13.4336 11.49 13.4336 11.4898 13.4336 11.4896C13.4336 11.4894 13.4336 11.4892 13.4336 11.489C13.4336 11.4888 13.4336 11.4886 13.4336 11.4884C13.4336 11.4882 13.4336 11.4879 13.4336 11.4877C13.4336 11.4875 13.4336 11.4873 13.4336 11.4871C13.4336 11.4869 13.4336 11.4867 13.4336 11.4865C13.4336 11.4863 13.4336 11.4861 13.4336 11.4859C13.4336 11.4856 13.4336 11.4854 13.4336 11.4852C13.4336 11.485 13.4336 11.4848 13.4336 11.4846C13.4336 11.4844 13.4336 11.4842 13.4336 11.484C13.4336 11.4838 13.4336 11.4836 13.4336 11.4833C13.4336 11.4831 13.4336 11.4829 13.4336 11.4827C13.4336 11.4825 13.4336 11.4823 13.4336 11.4821C13.4336 11.4819 13.4336 11.4817 13.4336 11.4815C13.4336 11.4813 13.4336 11.481 13.4336 11.4808C13.4336 11.4806 13.4336 11.4804 13.4336 11.4802C13.4336 11.48 13.4336 11.4798 13.4336 11.4796C13.4336 11.4794 13.4336 11.4791 13.4336 11.4789C13.4336 11.4787 13.4336 11.4785 13.4336 11.4783C13.4336 11.4781 13.4336 11.4779 13.4336 11.4777C13.4336 11.4775 13.4336 11.4772 13.4336 11.477C13.4336 11.4768 13.4336 11.4766 13.4336 11.4764C13.4336 11.4762 13.4336 11.476 13.4336 11.4758C13.4336 11.4756 13.4336 11.4753 13.4336 11.4751C13.4336 11.4749 13.4336 11.4747 13.4336 11.4745C13.4336 11.4743 13.4336 11.4741 13.4336 11.4739C13.4336 11.4736 13.4336 11.4734 13.4336 11.4732C13.4336 11.473 13.4336 11.4728 13.4336 11.4726C13.4336 11.4724 13.4336 11.4722 13.4336 11.4719C13.4336 11.4717 13.4336 11.4715 13.4336 11.4713C13.4336 11.4711 13.4336 11.4709 13.4336 11.4707C13.4336 11.4705 13.4336 11.4702 13.4336 11.47C13.4336 11.4698 13.4336 11.4696 13.4336 11.4694C13.4336 11.4692 13.4336 11.469 13.4336 11.4688H11.4336ZM11.4336 11.7266C11.4336 12.3623 11.5417 13.0187 11.9128 13.5383C12.3283 14.1199 12.952 14.3672 13.6055 14.3672V12.3672C13.5264 12.3672 13.5051 12.3535 13.5157 12.3585C13.5315 12.3659 13.5419 12.3781 13.5403 12.3758C13.5208 12.3485 13.4336 12.1846 13.4336 11.7266H11.4336ZM13.6055 14.3672C14.3146 14.3672 14.9759 14.1694 15.5414 13.7453L14.3414 12.1453C14.1569 12.2837 13.9276 12.3672 13.6055 12.3672V14.3672ZM15.5414 13.7453C16.0461 13.3668 16.4414 12.8845 16.7265 12.3144L14.9376 11.42C14.7852 11.7248 14.5868 11.9613 14.3414 12.1453L15.5414 13.7453ZM16.7202 12.3266C16.9949 11.7955 17.1966 11.2363 17.3246 10.6512L15.3708 10.2238C15.28 10.6387 15.1379 11.0326 14.9438 11.4078L16.7202 12.3266ZM17.3259 10.645C17.4475 10.0719 17.5117 9.51745 17.5117 8.98438H15.5117C15.5117 9.35755 15.4666 9.77182 15.3694 10.23L17.3259 10.645ZM17.5117 8.98438C17.5117 7.49638 17.199 6.11305 16.5599 4.85246L14.7761 5.75692C15.2619 6.71507 15.5117 7.78487 15.5117 8.98438H17.5117ZM16.5624 4.85747C15.9252 3.58309 15.0281 2.55491 13.8729 1.79676L12.7756 3.46886C13.6203 4.02321 14.2857 4.77628 14.7735 5.7519L16.5624 4.85747ZM13.8819 1.80276C12.7023 1.01018 11.348 0.625 9.85547 0.625V2.625C10.9879 2.625 11.9462 2.91169 12.7665 3.46286L13.8819 1.80276ZM9.85547 0.625C8.66394 0.625 7.52815 0.824034 6.45579 1.22837L7.1614 3.09976C7.99529 2.78534 8.89075 2.625 9.85547 2.625V0.625ZM6.45066 1.23032C5.40204 1.63229 4.46113 2.20311 3.63445 2.94184L4.96711 4.43316C5.60918 3.85939 6.34014 3.41459 7.16653 3.09781L6.45066 1.23032ZM3.63541 2.94099C2.81454 3.67263 2.1699 4.54125 1.70627 5.53983L3.52029 6.38205C3.86917 5.63062 4.34952 4.98362 4.96615 4.43401L3.63541 2.94099ZM1.70921 5.53356C1.23553 6.53558 1.00391 7.62033 1.00391 8.77344H3.00391C3.00391 7.89529 3.17854 7.10505 3.51735 6.38832L1.70921 5.53356ZM1.00391 8.77344C1.00391 10.5244 1.33273 12.1104 2.02128 13.5052L3.81465 12.6198C3.28446 11.5459 3.00391 10.2724 3.00391 8.77344H1.00391ZM2.02581 13.5142C2.74393 14.9325 3.8195 16.033 5.22896 16.8002L6.1851 15.0436C5.12582 14.467 4.34201 13.6612 3.81013 12.6108L2.02581 13.5142ZM5.22511 16.7981C6.66196 17.5884 8.40228 17.9531 10.3945 17.9531V15.9531C8.63678 15.9531 7.25211 15.6304 6.18895 15.0457L5.22511 16.7981ZM10.3945 17.9531C10.7983 17.9531 11.197 17.87 11.584 17.7274L10.8926 15.8507C10.6858 15.9269 10.522 15.9531 10.3945 15.9531V17.9531ZM11.584 17.7274C11.9035 17.6097 12.1975 17.4829 12.4325 17.3419L11.4035 15.6269C11.326 15.6734 11.1668 15.7497 10.8926 15.8507L11.584 17.7274ZM12.2342 17.4331L12.3748 17.3862L11.7424 15.4888L11.6017 15.5357L12.2342 17.4331ZM11.078 16.6336L11.1249 16.868L13.086 16.4758L13.0392 16.2414L11.078 16.6336ZM11.1216 16.493C11.1198 16.5032 11.118 16.5065 11.1184 16.5056C11.1188 16.5047 11.1191 16.5048 11.1173 16.507C11.1142 16.5109 11.0894 16.5408 11.0101 16.5822L11.9352 18.3553C12.5188 18.0509 12.9623 17.5492 13.0893 16.8508L11.1216 16.493ZM10.9639 16.6078C10.7339 16.7438 10.4583 16.8467 10.125 16.9062L10.4766 18.8751C11.0183 18.7783 11.524 18.6 11.9814 18.3297L10.9639 16.6078ZM10.125 16.9062C9.73251 16.9763 9.39402 17.0078 9.10547 17.0078V19.0078C9.53567 19.0078 9.99405 18.9612 10.4766 18.8751L10.125 16.9062ZM7.91016 13.7578C8.44787 13.7578 8.94829 13.5814 9.39745 13.3034L8.34474 11.6029C8.13765 11.7311 7.99744 11.7578 7.91016 11.7578V13.7578ZM9.40797 13.2968C9.81512 13.0377 10.1922 12.7337 10.5391 12.3868L9.12492 10.9726C8.87807 11.2194 8.61457 11.4311 8.33422 11.6095L9.40797 13.2968ZM10.557 12.3684C10.8893 12.0187 11.1748 11.6627 11.4041 11.2996L9.7131 10.2316C9.56743 10.4623 9.36853 10.7157 9.10703 10.9909L10.557 12.3684ZM11.397 11.3106C11.6182 10.9704 11.846 10.5454 11.8833 10.0987L9.89017 9.93258C9.89461 9.87937 9.90546 9.87745 9.87681 9.94293C9.85033 10.0035 9.80189 10.0949 9.72015 10.2206L11.397 11.3106ZM11.8819 10.1138L12.2334 6.55133L10.2431 6.35492L9.89155 9.91742L11.8819 10.1138ZM12.2084 6.69566C12.2546 6.51077 12.2617 6.31734 12.2617 6.17188H10.2617C10.2617 6.19286 10.2614 6.21015 10.2609 6.22407C10.2604 6.23809 10.2598 6.24751 10.2593 6.25289C10.2588 6.25846 10.2587 6.25781 10.2596 6.25205C10.2604 6.24668 10.2628 6.23205 10.2681 6.21059L12.2084 6.69566ZM12.2617 6.17188C12.2617 5.92439 12.2121 5.63649 12.0489 5.36441C11.8796 5.08218 11.6323 4.89139 11.3651 4.78005L10.5959 6.6262C10.5161 6.59298 10.4095 6.51939 10.3339 6.3934C10.2644 6.27757 10.2617 6.18498 10.2617 6.17188H12.2617ZM11.3943 4.79276C11.0071 4.61677 10.5066 4.58594 10.0664 4.58594V6.58594C10.2589 6.58594 10.3992 6.59472 10.4959 6.60712C10.603 6.62084 10.6105 6.63343 10.5667 6.61349L11.3943 4.79276ZM10.0664 4.58594C8.70758 4.58594 7.58538 5.22454 6.73846 6.34093L8.33185 7.5497C8.85993 6.85359 9.42524 6.58594 10.0664 6.58594V4.58594ZM6.73684 6.34307C5.88964 7.46611 5.52734 8.94062 5.52734 10.6484H7.52734C7.52734 9.2 7.83692 8.20577 8.33347 7.54755L6.73684 6.34307ZM5.52734 10.6484C5.52734 11.4744 5.67898 12.2923 6.17526 12.8989L7.72318 11.6324C7.65696 11.5515 7.52734 11.2912 7.52734 10.6484H5.52734ZM6.18996 12.9164C6.61898 13.4169 7.19969 13.7578 7.91016 13.7578V11.7578C7.88923 11.7578 7.87554 11.7546 7.85627 11.7447C7.83257 11.7326 7.7811 11.6996 7.70848 11.6148L6.18996 12.9164Z" fill="black" mask="url(#path-1-outside-1_8_118)"/>
</svg>
