<svg width="862" height="600" viewBox="0 0 862 600" fill="none" xmlns="http://www.w3.org/2000/svg">
    <path fill-rule="evenodd" clip-rule="evenodd" d="M0 550H343V600H423.316L448.464 585.481L139.304 50H0V550ZM150.851 50L339.296 376.396L552.938 253.049L406.84 0H343V50H150.851ZM670.767 457.134L457.124 580.481L424.784 524.465L638.426 401.118L670.767 457.134ZM633.426 392.458L419.784 515.805L384.906 455.394L598.548 332.048L633.426 392.458ZM593.548 323.388L379.906 446.734L344.296 385.056L557.938 261.709L593.548 323.388ZM859.4 348.226L862 346.725V310.602L843.758 321.134L859.4 348.226ZM835.098 326.134L663.785 425.041L679.427 452.134L850.74 353.226L835.098 326.134ZM830.098 317.474L658.785 416.381L647.086 396.118L818.399 297.211L830.098 317.474ZM838.758 312.473L862 299.055V272.038L827.06 292.211L838.758 312.473ZM822.06 283.55L862 260.491V179.944L787.182 223.14L822.06 283.55ZM778.521 228.14L607.208 327.048L642.086 387.458L813.399 288.55L778.521 228.14ZM782.182 214.48L862 168.397V127.414L764.436 183.743L782.182 214.48ZM755.775 188.743L773.521 219.48L602.208 318.388L584.462 287.65L755.775 188.743ZM759.436 175.082L862 115.867V86.1592L746.572 152.802L759.436 175.082ZM737.911 157.802L750.775 180.082L579.462 278.99L566.598 256.709L737.911 157.802ZM741.572 144.141L862 74.6122V0H658.352L741.572 144.141ZM646.805 0L732.911 149.141L561.598 248.049L418.387 0H646.805ZM862 457.441L727.368 535.171L684.427 460.794L862 358.272V457.441ZM443.316 600L675.767 465.794L718.708 540.171L615.081 600H443.316ZM862 468.988L635.081 600H862V468.988Z" fill="black" fill-opacity="0.57"/>
</svg>
