<svg width="708" height="58" viewBox="0 0 708 58" fill="none" xmlns="http://www.w3.org/2000/svg">
<g filter="url(#filter0_d_16_72)">
<path fill-rule="evenodd" clip-rule="evenodd" d="M681.118 50H691.464L686.291 44.8269L681.118 50ZM689.827 41.2914L698.536 50H704V27.1184L689.827 41.2914ZM701.256 22.7914L686.291 37.7559L673.827 25.2914L688.791 10.3269L701.256 22.7914ZM682.756 41.2914L675.791 48.2559L663.327 35.7914L670.291 28.8269L682.756 41.2914ZM659.791 39.3269L670.464 50H649.118L659.791 39.3269ZM659.791 32.2558L666.756 25.2914L659.291 17.8269L652.327 24.7914L659.791 32.2558ZM670.291 21.7558L685.256 6.79138L678.464 0H677.118L662.827 14.2914L670.291 21.7558ZM704 18.4645L692.327 6.79138L699.118 0H704V18.4645ZM688.791 3.25585L692.047 0H685.536L688.791 3.25585ZM642.047 50L656.256 35.7914L648.791 28.3269L632.327 44.7914L637.536 50H642.047ZM627.118 50H630.464L628.791 48.3269L627.118 50ZM645.256 24.7914L628.791 41.2559L587.536 0H620.464L645.256 24.7914ZM655.756 14.2914L648.791 21.2559L627.536 0H641.464L655.756 14.2914ZM670.047 0L659.291 10.7559L648.536 0H670.047ZM625.256 44.7914L620.047 50H533.536L509.827 26.2914L536.118 0H580.464L625.256 44.7914ZM506.291 22.7559L483.536 0H529.047L506.291 22.7559ZM4 0H380.464L430.464 50H4V0ZM445.047 50H437.536L387.536 0H452.464L473.756 21.2914L445.047 50ZM477.291 24.8269L452.118 50H502.464L477.291 24.8269ZM480.827 21.2914L509.536 50H526.464L489.291 12.8269L480.827 21.2914ZM485.756 9.29138L476.464 0H459.536L477.291 17.7558L485.756 9.29138Z" fill="#1A1A1A"/>
</g>
<defs>
<filter id="filter0_d_16_72" x="0" y="0" width="708" height="58" filterUnits="userSpaceOnUse" color-interpolation-filters="sRGB">
<feFlood flood-opacity="0" result="BackgroundImageFix"/>
<feColorMatrix in="SourceAlpha" type="matrix" values="0 0 0 0 0 0 0 0 0 0 0 0 0 0 0 0 0 0 127 0" result="hardAlpha"/>
<feOffset dy="4"/>
<feGaussianBlur stdDeviation="2"/>
<feComposite in2="hardAlpha" operator="out"/>
<feColorMatrix type="matrix" values="0 0 0 0 0 0 0 0 0 0 0 0 0 0 0 0 0 0 0.25 0"/>
<feBlend mode="normal" in2="BackgroundImageFix" result="effect1_dropShadow_16_72"/>
<feBlend mode="normal" in="SourceGraphic" in2="effect1_dropShadow_16_72" result="shape"/>
</filter>
</defs>
</svg>
